<svg id="e3aj64cna8511" xmlns="http://www.w3.org/2000/svg" xmlns:xlink="http://www.w3.org/1999/xlink" viewBox="0 0 559.472000 398.980000" shape-rendering="geometricPrecision" text-rendering="geometricPrecision"><style><![CDATA[#e3aj64cna85122_to {animation: e3aj64cna85122_to__to 5000ms linear infinite reverse forwards}@keyframes e3aj64cna85122_to__to { 0% {transform: translate(0px,0px)} 10% {transform: translate(1.999000px,0px)} 20% {transform: translate(0px,0px)} 30% {transform: translate(-2.001000px,0px)} 40% {transform: translate(0px,0px)} 100% {transform: translate(0px,0px)} }#e3aj64cna85124_to {animation: e3aj64cna85124_to__to 5000ms linear infinite reverse forwards}@keyframes e3aj64cna85124_to__to { 0% {transform: translate(0px,0px)} 10% {transform: translate(0px,0px)} 20% {transform: translate(0px,0px)} 30% {transform: translate(0px,0px)} 100% {transform: translate(0px,0px)} }#e3aj64cna85124 {animation: e3aj64cna85124_s_w 5000ms linear infinite reverse forwards}@keyframes e3aj64cna85124_s_w { 0% {stroke-width: 3} 10% {stroke-width: 1} 20% {stroke-width: 3} 30% {stroke-width: 1} 40% {stroke-width: 1} 100% {stroke-width: 1} }#e3aj64cna85127_to {animation: e3aj64cna85127_to__to 5000ms linear infinite reverse forwards}@keyframes e3aj64cna85127_to__to { 0% {transform: translate(0px,0px)} 10% {transform: translate(2.001000px,0px)} 20% {transform: translate(0px,0px)} 30% {transform: translate(-1.999000px,0px)} 40% {transform: translate(0px,0px)} 100% {transform: translate(0px,0px)} }#e3aj64cna85148 {animation: e3aj64cna85148_c_o 5000ms linear infinite reverse forwards}@keyframes e3aj64cna85148_c_o { 0% {opacity: 1} 24% {opacity: 0.400000} 52% {opacity: 1} 100% {opacity: 1} }#e3aj64cna85152_to {animation: e3aj64cna85152_to__to 5000ms linear infinite reverse forwards}@keyframes e3aj64cna85152_to__to { 0% {transform: translate(0px,0px)} 50% {transform: translate(-33px,0px)} 100% {transform: translate(0px,0px)} }#e3aj64cna85158_to {animation: e3aj64cna85158_to__to 5000ms linear infinite reverse forwards}@keyframes e3aj64cna85158_to__to { 0% {transform: translate(0px,0px)} 50% {transform: translate(-10px,0px)} 100% {transform: translate(0px,0px)} }#e3aj64cna85161_to {animation: e3aj64cna85161_to__to 5000ms linear infinite reverse forwards}@keyframes e3aj64cna85161_to__to { 0% {transform: translate(0px,0px)} 24% {transform: translate(0px,4px)} 48% {transform: translate(0px,1.913043px)} 100% {transform: translate(0px,0px)} }#e3aj64cna85164_tr {animation: e3aj64cna85164_tr__tr 5000ms linear infinite reverse forwards}@keyframes e3aj64cna85164_tr__tr { 0% {transform: translate(107.056000px,136.599500px) rotate(0deg)} 24% {transform: translate(107.056000px,136.599500px) rotate(50deg)} 48% {transform: translate(107.056000px,136.599500px) rotate(0deg)} 100% {transform: translate(107.056000px,136.599500px) rotate(0deg)} }#e3aj64cna85168_to {animation: e3aj64cna85168_to__to 5000ms linear infinite reverse forwards}@keyframes e3aj64cna85168_to__to { 0% {transform: translate(0px,0px)} 50% {transform: translate(7px,0px)} 100% {transform: translate(0px,0px)} }#e3aj64cna85174_to {animation: e3aj64cna85174_to__to 5000ms linear infinite reverse forwards}@keyframes e3aj64cna85174_to__to { 0% {transform: translate(0px,0px)} 50% {transform: translate(0px,5px)} 100% {transform: translate(0px,0px)} }#e3aj64cna85175_tr {animation: e3aj64cna85175_tr__tr 5000ms linear infinite reverse forwards}@keyframes e3aj64cna85175_tr__tr { 0% {transform: translate(0px,0px) rotate(0deg);animation-timing-function: cubic-bezier(0.390000,0.575000,0.565000,1)} 24% {transform: translate(0px,0px) rotate(12deg);animation-timing-function: cubic-bezier(0.390000,0.575000,0.565000,1)} 48% {transform: translate(0px,0px) rotate(0deg);animation-timing-function: cubic-bezier(0.390000,0.575000,0.565000,1)} 70% {transform: translate(0px,0px) rotate(24deg);animation-timing-function: cubic-bezier(0.390000,0.575000,0.565000,1)} 100% {transform: translate(0px,0px) rotate(0deg)} }#e3aj64cna85184_tr {animation: e3aj64cna85184_tr__tr 5000ms linear infinite reverse forwards}@keyframes e3aj64cna85184_tr__tr { 0% {transform: translate(174.798000px,61.872000px) rotate(0deg)} 100% {transform: translate(174.798000px,61.872000px) rotate(360deg)} }#e3aj64cna85190_to {animation: e3aj64cna85190_to__to 5000ms linear infinite reverse forwards}@keyframes e3aj64cna85190_to__to { 0% {transform: translate(0px,0px)} 50% {transform: translate(0px,40px)} 100% {transform: translate(0px,0px)} }#e3aj64cna851110_to {animation: e3aj64cna851110_to__to 5000ms linear infinite reverse forwards}@keyframes e3aj64cna851110_to__to { 0% {transform: translate(0px,0px)} 40% {transform: translate(-22.391763px,0px)} 100% {transform: translate(0px,0px)} }#e3aj64cna851127_to {animation: e3aj64cna851127_to__to 5000ms linear infinite reverse forwards}@keyframes e3aj64cna851127_to__to { 0% {transform: translate(0px,0px)} 24% {transform: translate(6px,0px)} 48% {transform: translate(0px,0px);animation-timing-function: cubic-bezier(0.420000,0,0.580000,1)} 70% {transform: translate(-6px,0px)} 100% {transform: translate(0px,0px)} }#e3aj64cna851132_tr {animation: e3aj64cna851132_tr__tr 5000ms linear infinite reverse forwards}@keyframes e3aj64cna851132_tr__tr { 0% {transform: translate(223.789000px,105.292001px) rotate(24deg)} 24% {transform: translate(223.789000px,105.292001px) rotate(0deg)} 48% {transform: translate(223.789000px,105.292001px) rotate(24deg)} 100% {transform: translate(223.789000px,105.292001px) rotate(24deg)} }#e3aj64cna851134_to {animation: e3aj64cna851134_to__to 5000ms linear infinite reverse forwards}@keyframes e3aj64cna851134_to__to { 0% {transform: translate(0px,0px)} 50% {transform: translate(0px,22px)} 100% {transform: translate(0px,0px)} }#e3aj64cna851137_to {animation: e3aj64cna851137_to__to 5000ms linear infinite reverse forwards}@keyframes e3aj64cna851137_to__to { 0% {transform: translate(0px,0px)} 48% {transform: translate(5px,0px)} 100% {transform: translate(0px,0px)} }#e3aj64cna851137 {animation: e3aj64cna851137_c_o 5000ms linear infinite reverse forwards}@keyframes e3aj64cna851137_c_o { 0% {opacity: 1} 24% {opacity: 0.500000} 48% {opacity: 1} 74% {opacity: 0.500000} 100% {opacity: 1} }#e3aj64cna851139_to {animation: e3aj64cna851139_to__to 5000ms linear infinite reverse forwards}@keyframes e3aj64cna851139_to__to { 0% {transform: translate(38px,0px)} 50% {transform: translate(0px,0px)} 100% {transform: translate(38px,0px)} }]]></style><defs><filter id="e3aj64cna85148-filter" x="-400%" width="600%" y="-400%" height="600%"><feGaussianBlur id="e3aj64cna85148-filter-blur-0" stdDeviation="0,0" result="result"/></filter><filter id="e3aj64cna851110-filter" x="-400%" width="600%" y="-400%" height="600%"><feColorMatrix id="e3aj64cna851110-filter-hue-rotate-0" type="hueRotate" values="0" result="result"/><feColorMatrix id="e3aj64cna851110-filter-sepia-0" type="matrix" values="1 0 0 0 0 0 1 0 0 0 0 0 1 0 0 0 0 0 1 0" result="result"/><feGaussianBlur id="e3aj64cna851110-filter-blur-0" stdDeviation="0,0" result="result"/></filter></defs><path id="e3aj64cna8512" d="M76.392000,368.905000C76.392000,368.905000,-5.608000,346.905000,17.392000,273.905000C17.392000,273.905000,24.392000,247.905000,98.392000,221.905000C98.392000,221.905000,213.392000,175.905000,208.392000,105.905000C203.392000,35.905000,320.392000,-17.095000,395.392000,38.905000C395.392000,38.905000,730.392000,244.905000,409.392000,366.905000C409.392000,366.905000,225.392000,405.905000,76.392000,368.905000Z" transform="matrix(1 0 0 1 -0.00265286000000 0)" fill="rgb(226,226,246)" stroke="none" stroke-width="3"/><polyline id="e3aj64cna8513" display="none" points="183.702000,-207.843000 165.426000,-182.326000 149.118000,-187.111000" fill="none" stroke="rgb(194,60,78)" stroke-width="20" stroke-miterlimit="10"/><g id="e3aj64cna8514"><path id="e3aj64cna8515" d="M286.941000,184.265000C286.941000,184.265000,283.318000,184.736000,278.936000,189.354000C278.936000,189.354000,273.105000,213.584000,290.198000,218.337000C290.198000,218.337000,314.304000,230.201000,333.059000,212.759000C333.059000,212.759000,345.958000,191.427000,330.176000,185.030000C330.176000,185.030000,315.734000,183.202000,315.863000,187.189000C315.865000,187.190000,293.923000,189.747000,286.941000,184.265000Z" fill="rgb(238,176,133)" stroke="none" stroke-width="1"/><g id="e3aj64cna8516"><path id="e3aj64cna8517" d="M252.659000,282.916000C254.944000,284.979000,257.331000,286.930000,259.812000,288.762000L260.026000,279.823000C260.026000,279.821000,257.069000,281.331000,252.659000,282.916000Z" fill="rgb(241,99,114)" stroke="none" stroke-width="1"/><path id="e3aj64cna8518" d="M406.892000,309.269000C413.529000,280.133000,388.399000,204.991000,388.399000,204.991000C376.642000,195.406000,354.277000,190.156000,354.277000,190.156000C341.257000,186.244000,327.673000,184.670000,327.673000,184.670000C340.229000,194.725000,333.691000,203.401000,333.691000,203.401000C330.554000,212.339000,310.099000,215.157000,310.099000,215.157000C288.058000,214.666000,279.652000,202.647000,279.652000,202.647000C272.567000,192.619000,283.970000,186.415000,283.970000,186.415000C280.936000,187.061000,241.317000,209.911000,241.317000,209.911000C232.065000,214.592000,216.078000,282.633000,214.847000,297.906000C220.074000,312.746000,214.182258,327.172228,246.665000,328.588000C250.348000,335.065714,392.295000,341.771000,406.892000,309.269000Z" fill="rgb(241,99,114)" stroke="rgb(41,38,99)" stroke-width="4" stroke-linecap="round" stroke-linejoin="round" stroke-miterlimit="10"/></g><g id="e3aj64cna8519"><polyline id="e3aj64cna85110" points="346.706000,214.604000 352.637000,220.816000 356.873000,218.895000" fill="none" stroke="rgb(243,242,243)" stroke-width="1" stroke-miterlimit="10"/><line id="e3aj64cna85111" x1="347.264000" y1="223.935000" x2="354.482000" y2="223.671000" fill="none" stroke="rgb(243,242,243)" stroke-width="1" stroke-miterlimit="10"/><polyline id="e3aj64cna85112" points="354.160000,214.139000 349.159000,221.121000 344.696000,219.813000" fill="none" stroke="rgb(243,242,243)" stroke-width="1" stroke-miterlimit="10"/></g><polygon id="e3aj64cna85113" points="256.466000,257.670000 259.659000,277.265000 252.250000,281.886000" fill="rgb(194,60,77)" stroke="none" stroke-width="1"/><line id="e3aj64cna85114" x1="251.982000" y1="282.519000" x2="256.568000" y2="253.197000" fill="none" stroke="rgb(41,38,99)" stroke-width="4" stroke-miterlimit="10"/><line id="e3aj64cna85115" x1="373.051000" y1="283.118000" x2="367.681000" y2="253.931000" fill="none" stroke="rgb(41,38,99)" stroke-width="4" stroke-miterlimit="10"/><path id="e3aj64cna85116" d="M327.662000,185.436000L321.901000,189.251000C321.901000,189.251000,314.726000,193.186000,295.008000,193.186000C295.009000,193.186000,317.615000,215.313000,327.662000,185.436000Z" fill="rgb(176,127,126)" stroke="none" stroke-width="1"/><g id="e3aj64cna85117"><path id="e3aj64cna85118" d="M300.220000,193.186000C300.220000,193.186000,274.133000,190.690000,267.804000,143.726000C267.804000,143.726000,262.905000,99.597000,301.712000,96.361000C301.712000,96.361000,341.581000,89.450000,342.142000,133.732000C341.929048,133.730000,347.847000,197.155000,300.220000,193.186000Z" fill="rgb(238,176,133)" stroke="rgb(41,38,99)" stroke-width="3" stroke-miterlimit="10"/><path id="e3aj64cna85119" d="M267.472000,141.546000C267.472000,141.546000,256.569000,104.446000,260.636000,75.862000C260.636000,75.862000,280.909000,97.405000,310.353000,83.655000C310.353000,83.655000,330.025000,74.905000,331.638000,81.969000L322.188000,103.602000C322.188000,103.602000,318.726000,113.690000,312.235000,113.455000L282.746000,115.790000C282.745000,115.791000,265.828000,118.582000,267.472000,141.546000Z" fill="rgb(41,38,99)" stroke="none" stroke-width="1"/><path id="e3aj64cna85120" d="M320.204000,107.738000C320.204000,107.738000,325.262000,112.690000,333.872000,114.240000C333.872000,114.240000,337.811000,116.550000,337.654000,120.878000L341.191000,134.316000C341.191000,134.316000,349.727000,129.364000,347.465000,106.378000C347.465000,106.378000,345.897000,71.405000,331.636000,81.970000L320.204000,107.738000Z" fill="rgb(41,38,99)" stroke="none" stroke-width="1"/><path id="e3aj64cna85121" d="M311.786000,125.820000L320.531000,123.661000C320.531000,123.661000,324.926000,121.964000,330.024000,126.481000" fill="none" stroke="rgb(41,38,99)" stroke-width="3" stroke-miterlimit="10"/><g id="e3aj64cna85122_to" transform="translate(0,0)"><circle id="e3aj64cna85122" r="3.093000" transform="translate(321.554000,136.530000)" fill="rgb(41,38,99)" stroke="none" stroke-width="1"/></g><path id="e3aj64cna85123" d="M295.923000,150.007000C295.923000,150.007000,295.451000,158.037000,302.561000,158.296000C302.561000,158.296000,308.579000,158.270000,308.560000,150.337000" transform="matrix(1 0 0 1 2 0)" fill="none" stroke="rgb(41,38,99)" stroke-width="3" stroke-miterlimit="10"/><g id="e3aj64cna85124_to" transform="translate(0,0)"><path id="e3aj64cna85124" d="M292.755000,170.939000C300.605603,174.142036,309.658643,171.648313,318.264000,169.079000" transform="translate(0,0)" fill="none" stroke="rgb(41,38,99)" stroke-width="1" stroke-miterlimit="10"/></g><path id="e3aj64cna85125" d="M267.472000,136.522000C267.472000,136.522000,257.811000,137.117000,261.458000,147.463000C261.458000,147.463000,263.680000,158.514000,270.399000,156.746000L267.472000,136.522000Z" fill="rgb(238,176,133)" stroke="rgb(41,38,99)" stroke-width="3" stroke-linecap="round" stroke-miterlimit="10"/><path id="e3aj64cna85126" d="M342.670000,129.964000C342.670000,129.964000,350.283000,131.015000,349.735000,141.204000C349.735000,141.204000,349.361000,151.100000,342.031000,150.370000L342.670000,129.964000Z" fill="rgb(238,176,133)" stroke="rgb(41,38,99)" stroke-width="3" stroke-linecap="round" stroke-miterlimit="10"/><g id="e3aj64cna85127_to" transform="translate(0,0)"><circle id="e3aj64cna85127" r="3.093000" transform="translate(286.962000,136.063000)" fill="rgb(41,38,99)" stroke="none" stroke-width="1"/></g><path id="e3aj64cna85128" d="M293.946000,127.421000L285.006000,126.321000C285.006000,126.321000,280.204000,125.142000,275.683000,130.237000" fill="none" stroke="rgb(41,38,99)" stroke-width="3" stroke-miterlimit="10"/></g><g id="e3aj64cna85129"><g id="e3aj64cna85130"><path id="e3aj64cna85131" d="M275.074000,139.005000L273.752000,129.151000C273.752000,129.151000,273.578000,124.944000,278.293000,125.225000L298.119000,125.211000C298.119000,125.211000,302.473000,125.223000,301.855000,130.273000L299.553000,140.908000C299.553000,140.908000,297.350000,144.857000,294.665000,144.576000L278.645000,144.591000C276.312112,143.872880,275.086410,142.034821,275.074000,139.005000Z" fill="none" stroke="rgb(41,38,99)" stroke-width="3" stroke-linecap="round" stroke-miterlimit="10"/><path id="e3aj64cna85132" d="M334.661000,138.289000L335.983000,128.435000C335.983000,128.435000,336.158000,124.228000,331.443000,124.508000L311.617000,124.494000C311.617000,124.494000,307.263000,124.508000,307.880000,129.557000L310.182000,140.192000C310.182000,140.192000,310.909234,144.141000,315.070000,143.861000L330.024000,144.318000C330.201688,144.232631,333.606621,144.951103,334.661000,138.289000Z" fill="none" stroke="rgb(41,38,99)" stroke-width="3" stroke-linecap="round" stroke-miterlimit="10"/><line id="e3aj64cna85133" x1="301.855000" y1="130.272000" x2="307.880000" y2="129.556000" fill="none" stroke="rgb(41,38,99)" stroke-width="3" stroke-linecap="round" stroke-miterlimit="10"/><line id="e3aj64cna85134" x1="274.926000" y1="126.202000" x2="270.667000" y2="126.202000" fill="none" stroke="rgb(41,38,99)" stroke-width="3" stroke-linecap="round" stroke-miterlimit="10"/></g><line id="e3aj64cna85135" x1="337.392000" y1="126.202000" x2="341.257000" y2="126.202000" fill="none" stroke="rgb(41,38,99)" stroke-width="3" stroke-linecap="round" stroke-miterlimit="10"/></g></g><path id="e3aj64cna85136" d="M362.673000,279.101000L357.442000,251.122000C357.442000,251.122000,353.570000,260.665000,354.391000,265.571000C354.391000,265.571000,359.479000,270.976000,356.710000,273.314000C356.710000,273.314000,353.176000,282.474000,355.994000,285.627000L363.489000,289.126000L362.673000,279.101000Z" fill="rgb(194,60,77)" stroke="none" stroke-width="1"/><path id="e3aj64cna85137" d="M378.843000,315.950000C378.843000,322.025000,373.917000,326.950000,367.843000,326.950000L247.797000,326.950000C241.722000,326.950000,236.797000,322.025000,236.797000,315.950000L236.797000,245.905000C236.797000,239.830000,241.722000,234.905000,247.797000,234.905000L367.843000,234.905000C373.917000,234.905000,378.843000,239.830000,378.843000,245.905000L378.843000,315.950000Z" fill="rgb(160,163,162)" stroke="none" stroke-width="1"/><path id="e3aj64cna85138" d="M513.528000,334.200000C513.528000,337.652000,510.729000,340.450000,507.278000,340.450000L106.142000,340.450000C102.690000,340.450000,99.892000,337.652000,99.892000,334.200000L99.892000,334.200000C99.892000,330.748000,102.690000,327.950000,106.142000,327.950000L507.279000,327.950000C510.729000,327.950000,513.528000,330.748000,513.528000,334.200000L513.528000,334.200000Z" fill="rgb(132,95,55)" stroke="none" stroke-width="1"/><polygon id="e3aj64cna85139" points="441.059000,327.425000 434.059000,276.784000 441.392000,270.784000 464.892000,270.784000 474.059000,276.784000 468.809000,327.425000" fill="rgb(255,255,255)" stroke="rgb(134,150,129)" stroke-width="1" stroke-miterlimit="10"/><polyline id="e3aj64cna85140" points="437.892000,302.925000 435.142000,287.022000 473.142000,287.022000 471.642000,302.925000 437.892000,302.925000" fill="rgb(183,150,118)" stroke="none" stroke-width="1"/><path id="e3aj64cna85141" d="" fill="rgb(255,255,255)" stroke="none" stroke-width="1"/><g id="e3aj64cna85142"><path id="e3aj64cna85143" d="M184.392000,285.480000C184.392000,285.480000,170.892000,294.153000,184.392000,300.854000L123.392000,300.854000C123.392000,300.854000,111.892000,291.153000,123.392000,286.354000L184.392000,285.480000Z" fill="rgb(195,193,201)" stroke="none" stroke-width="1"/><path id="e3aj64cna85144" d="M188.392000,286.354000L123.392000,286.354000C123.392000,286.354000,117.892000,288.470000,117.892000,293.604000C117.892000,298.738000,123.392000,300.854000,123.392000,300.854000L188.392000,300.854000" fill="none" stroke="rgb(50,184,205)" stroke-width="4" stroke-miterlimit="10"/><path id="e3aj64cna85145" d="M204.392000,303.648000C204.392000,303.648000,188.392000,314.898000,204.392000,326.138000L123.392000,327.854000C123.392000,327.854000,104.392000,314.364000,123.392000,304.482000L204.392000,303.648000Z" fill="rgb(195,193,201)" stroke="none" stroke-width="1"/><path id="e3aj64cna85146" d="M208.392000,303.354000L123.392000,303.354000C123.392000,303.354000,114.225000,305.650000,114.225000,315.604000C114.225000,324.380000,123.392000,327.854000,123.392000,327.854000L208.392000,327.854000" fill="none" stroke="rgb(210,81,48)" stroke-width="4" stroke-miterlimit="10"/></g><circle id="e3aj64cna85147" r="6.899000" transform="matrix(1 0 0 1 453.79100000000000 295.02499999999998)" fill="rgb(38,118,59)" stroke="none" stroke-width="1"/><g id="e3aj64cna85148" style="mix-blend-mode:luminosity" filter="url(#e3aj64cna85148-filter)"><path id="e3aj64cna85149" d="M316.315000,284.368000C316.013000,284.237000,315.726000,284.082000,315.481000,283.852000C314.786000,283.206000,314.319000,282.428000,314.205000,281.472000C314.156000,281.021000,314.156000,280.564000,314.262000,280.114000C314.402000,279.516000,314.688000,278.993000,315.121000,278.551000C315.399000,278.273000,315.686000,278.003000,315.963000,277.725000C316.135000,277.553000,316.168000,277.299000,316.020000,277.111000C315.710000,276.718000,315.366000,276.350000,314.957000,276.048000C314.450000,275.664000,313.877000,275.402000,313.255000,275.254000C312.814000,275.156000,312.372000,275.099000,311.914000,275.140000C311.153000,275.214000,310.425000,275.427000,309.705000,275.671000C309.133000,275.859000,308.576000,275.917000,307.987000,275.745000C307.308000,275.541000,306.621000,275.352000,305.909000,275.271000C305.181000,275.188000,304.477000,275.238000,303.790000,275.500000C302.931000,275.827000,302.268000,276.384000,301.736000,277.128000C301.343000,277.677000,301.049000,278.274000,300.852000,278.920000C300.623000,279.664000,300.517000,280.434000,300.517000,280.851000C300.485000,281.955000,300.591000,282.692000,300.746000,283.419000C300.869000,283.976000,301.040000,284.516000,301.245000,285.047000C301.728000,286.316000,302.358000,287.493000,303.217000,288.540000C303.675000,289.097000,304.198000,289.579000,304.862000,289.874000C305.288000,290.062000,305.729000,290.136000,306.179000,290.062000C306.654000,289.989000,307.112000,289.816000,307.562000,289.645000C307.848000,289.538000,308.135000,289.440000,308.437000,289.391000C308.919000,289.309000,309.377000,289.399000,309.836000,289.537000C310.318000,289.684000,310.785000,289.856000,311.268000,289.988000C311.996000,290.183000,312.667000,290.093000,313.305000,289.701000C314.098000,289.210000,314.687000,288.514000,315.202000,287.754000C315.775000,286.895000,316.258000,285.987000,316.568000,284.997000C316.667000,284.720000,316.577000,284.475000,316.315000,284.368000Z" fill="rgb(255,255,255)" stroke="none" stroke-width="1"/><path id="e3aj64cna85150" d="M308.527000,274.796000C308.609000,274.788000,308.698000,274.780000,308.781000,274.772000C309.362000,274.723000,309.910000,274.601000,310.400000,274.257000C310.768000,273.995000,311.088000,273.693000,311.374000,273.349000C311.726000,272.923000,312.020000,272.456000,312.200000,271.934000C312.331000,271.557000,312.372000,271.156000,312.413000,270.763000C312.437000,270.527000,312.437000,270.297000,312.454000,270.060000C312.478000,269.692000,312.225000,269.397000,311.816000,269.496000C311.407000,269.594000,311.006000,269.717000,310.622000,269.896000C310.041000,270.167000,309.510000,270.509000,309.100000,271.017000C308.364000,271.925000,308.045000,272.989000,307.979000,274.142000C307.979000,274.208000,307.979000,274.265000,307.979000,274.330000C307.979000,274.657000,308.200000,274.846000,308.527000,274.796000Z" fill="rgb(255,255,255)" stroke="none" stroke-width="1"/></g><line id="e3aj64cna85151" x1="434.059000" y1="276.784000" x2="474.059000" y2="276.784000" fill="none" stroke="rgb(134,150,129)" stroke-width="1" stroke-miterlimit="10"/><g id="e3aj64cna85152_to" transform="translate(0,0)"><g id="e3aj64cna85152" transform="translate(0,0)"><path id="e3aj64cna85153" d="M419.631000,179.517000C422.910000,179.517000,425.571000,176.856000,425.571000,173.577000L425.571000,167.638000L419.631000,167.638000C416.353000,167.638000,413.691000,170.299000,413.691000,173.577000C413.690000,176.855000,416.353000,179.517000,419.631000,179.517000Z" fill="none" stroke="rgb(106,106,170)" stroke-width="1" stroke-miterlimit="10"/><path id="e3aj64cna85154" d="M413.690000,161.695000C413.690000,158.417000,416.352000,155.756000,419.630000,155.756000L425.570000,155.756000L425.570000,167.637000L419.630000,167.637000C416.353000,167.637000,413.690000,164.975000,413.690000,161.695000Z" fill="none" stroke="rgb(106,106,170)" stroke-width="1" stroke-miterlimit="10"/><path id="e3aj64cna85155" d="M413.690000,149.815000C413.690000,146.536000,416.352000,143.876000,419.630000,143.876000L425.570000,143.876000L425.570000,155.756000L419.630000,155.756000C416.353000,155.756000,413.690000,153.095000,413.690000,149.815000Z" fill="none" stroke="rgb(106,106,170)" stroke-width="1" stroke-miterlimit="10"/><path id="e3aj64cna85156" d="M431.538000,155.756000L425.599000,155.756000L425.599000,143.876000L431.538000,143.876000C434.817000,143.876000,437.478000,146.536000,437.478000,149.815000C437.478000,153.094000,434.817000,155.756000,431.538000,155.756000Z" fill="none" stroke="rgb(106,106,170)" stroke-width="1" stroke-miterlimit="10"/><path id="e3aj64cna85157" d="M437.452000,161.695000C437.452000,164.974000,434.790000,167.636000,431.512000,167.636000C428.233000,167.636000,425.572000,164.974000,425.572000,161.695000C425.572000,158.417000,428.233000,155.756000,431.512000,155.756000C434.790000,155.756000,437.452000,158.417000,437.452000,161.695000Z" fill="none" stroke="rgb(106,106,170)" stroke-width="1" stroke-miterlimit="10"/></g></g><g id="e3aj64cna85158_to" transform="translate(0,0)"><g id="e3aj64cna85158" transform="translate(0,0)"><path id="e3aj64cna85159" d="M413.690000,81.883000L383.690000,81.883000L383.690000,51.884000L413.690000,51.884000L413.690000,81.883000ZM385.140000,80.435000L412.242000,80.435000L412.242000,53.333000L385.140000,53.333000L385.140000,80.435000Z" fill="rgb(106,106,170)" stroke="none" stroke-width="1"/><path id="e3aj64cna85160" d="M410.067000,74.116000L410.067000,65.391000C410.067000,62.753000,406.038000,60.985000,400.995000,63.043000L400.995000,74.115000L403.980000,74.115000L403.980000,64.580000C405.545000,64.058000,407.372000,64.290000,407.372000,65.623000L407.372000,74.116000L410.067000,74.116000ZM395.081000,57.971000L391.835000,57.971000L387.372000,73.942000L389.864000,74.087000L391.081000,69.595000L395.864000,69.595000L397.052000,74.087000L399.922000,74.087000L395.081000,57.971000ZM391.720000,67.072000L393.401000,60.376000L395.170000,67.072000L391.720000,67.072000Z" fill="rgb(106,106,170)" stroke="none" stroke-width="1"/></g></g><g id="e3aj64cna85161_to" transform="translate(0,0)"><g id="e3aj64cna85161" transform="translate(0,0)"><path id="e3aj64cna85162" d="M168.563000,129.157000L171.411000,161.376000L185.645000,164.305000L199.880000,161.376000L202.727000,129.157000L168.563000,129.157000ZM197.238000,158.932000L185.645000,161.317000L174.052000,158.932000L171.680000,132.086000L199.609000,132.086000L197.238000,158.932000Z" fill="rgb(106,106,170)" stroke="none" stroke-width="1"/><polygon id="e3aj64cna85163" points="175.962000,148.194000 192.469000,148.194000 191.951000,154.048000 185.645000,155.343000 179.338000,154.048000 179.080000,151.125000 176.222000,151.125000 176.695000,156.490000 185.645000,158.329000 194.596000,156.490000 195.586000,145.268000 178.563000,145.268000 177.916000,137.943000 196.233000,137.943000 196.492000,135.016000 174.798000,135.016000" fill="rgb(106,106,170)" stroke="none" stroke-width="1"/></g></g><g id="e3aj64cna85164_tr" transform="translate(107.056000,136.599500) rotate(0)"><g id="e3aj64cna85164" transform="translate(-107.056000,-136.599500)"><path id="e3aj64cna85165" d="M91.790000,129.010000L103.931000,153.812000L116.501000,151.691000L127.288000,144.898000L119.819000,118.314000L91.790000,129.010000ZM124.376000,143.777000L115.590000,149.306000L105.354000,151.035000L95.237000,130.370000L118.150000,121.626000L124.376000,143.777000Z" fill="rgb(106,106,170)" stroke="none" stroke-width="1"/><polygon id="e3aj64cna85166" points="103.654000,141.875000 117.195000,136.708000 118.552000,141.536000 113.773000,144.544000 108.204000,145.485000 107.104000,143.234000 104.758000,144.130000 106.779000,148.261000 114.682000,146.926000 121.464000,142.656000 118.862000,133.396000 107.814000,137.611000 117.164000,127.354000 116.484000,124.938000 98.688000,131.729000 99.791000,133.983000 111.977000,129.333000 102.627000,139.591000" fill="rgb(106,106,170)" stroke="none" stroke-width="1"/></g></g><g id="e3aj64cna85167"><g id="e3aj64cna85168_to" transform="translate(0,0)"><g id="e3aj64cna85168" transform="translate(0,0)"><g id="e3aj64cna85169"><path id="e3aj64cna85170" d="M393.199000,132.313000L368.995000,132.313000C367.397000,132.313000,366.098000,131.013000,366.098000,129.416000L366.098000,105.211000C366.098000,103.613000,367.398000,102.314000,368.995000,102.314000L393.199000,102.314000C394.798000,102.314000,396.097000,103.614000,396.097000,105.211000L396.097000,129.416000C396.098000,131.014000,394.798000,132.313000,393.199000,132.313000ZM368.995000,104.018000C368.337000,104.018000,367.802000,104.554000,367.802000,105.211000L367.802000,129.416000C367.802000,130.073000,368.337000,130.609000,368.995000,130.609000L393.199000,130.609000C393.857000,130.609000,394.392000,130.073000,394.392000,129.416000L394.392000,105.211000C394.392000,104.554000,393.857000,104.018000,393.199000,104.018000L368.995000,104.018000Z" fill="rgb(106,106,170)" stroke="none" stroke-width="1"/></g><g id="e3aj64cna85171"><path id="e3aj64cna85172" d="M374.656000,110.998000C375.367000,110.880000,376.297000,110.778000,377.480000,110.778000C378.934000,110.778000,380,111.116000,380.676000,111.725000C381.285000,112.266000,381.674000,113.094000,381.674000,114.109000C381.674000,115.141000,381.369000,115.953000,380.794000,116.545000C379.999000,117.373000,378.748000,117.796000,377.311000,117.796000C376.872000,117.796000,376.465000,117.779000,376.127000,117.694000L376.127000,122.260000L374.655000,122.260000L374.655000,110.998000ZM376.128000,116.494000C376.449000,116.578000,376.856000,116.612000,377.346000,116.612000C379.121000,116.612000,380.203000,115.733000,380.203000,114.193000C380.203000,112.672000,379.121000,111.944000,377.515000,111.944000C376.872000,111.944000,376.382000,111.996000,376.128000,112.063000L376.128000,116.494000Z" fill="rgb(106,106,170)" stroke="none" stroke-width="1"/><path id="e3aj64cna85173" d="M383.027000,120.756000C383.484000,121.027000,384.262000,121.330000,385.006000,121.330000C386.071000,121.330000,386.578000,120.807000,386.578000,120.113000C386.578000,119.402000,386.155000,119.030000,385.073000,118.625000C383.585000,118.083000,382.891000,117.289000,382.891000,116.308000C382.891000,114.990000,383.973000,113.907000,385.715000,113.907000C386.543000,113.907000,387.271000,114.127000,387.710000,114.415000L387.356000,115.497000C387.035000,115.294000,386.443000,115.007000,385.681000,115.007000C384.802000,115.007000,384.328000,115.514000,384.328000,116.123000C384.328000,116.800000,384.802000,117.103000,385.867000,117.526000C387.270000,118.050000,388.014000,118.760000,388.014000,119.978000C388.014000,121.432000,386.881000,122.447000,384.970000,122.447000C384.074000,122.447000,383.245000,122.211000,382.670000,121.873000L383.027000,120.756000Z" fill="rgb(106,106,170)" stroke="none" stroke-width="1"/></g></g></g></g><g id="e3aj64cna85174_to" transform="translate(0,0)"><path id="e3aj64cna85174" d="M133.828000,88.296000L133.828000,89.462000L137.547000,89.462000L137.547000,100.050000L140.188000,100.050000L140.188000,89.462000L143.909000,89.462000L143.909000,88.317000C143.909000,87.672000,143.909000,87.151000,143.880000,87.137000C143.880000,87.116000,141.612000,87.108000,138.859000,87.108000L133.851000,87.129000L133.851000,88.303000L133.828000,88.296000L133.828000,88.296000ZM150.547000,87.101000C151.276000,87.273000,151.834000,87.603000,152.335000,88.124000C152.600000,88.411000,152.993000,88.911000,153.022000,89.040000C153.022000,89.083000,151.785000,89.921000,151.034000,90.386000C151.005000,90.407000,150.891000,90.284000,150.776000,90.099000C150.404000,89.570000,150.025000,89.341000,149.431000,89.298000C148.572000,89.241000,148,89.690000,148,90.442000C148,90.671000,148.043000,90.799000,148.129000,90.985000C148.322000,91.380000,148.680000,91.616000,149.788000,92.102000C151.834000,92.981000,152.721000,93.561000,153.258000,94.391000C153.866000,95.321000,154.002000,96.780000,153.594000,97.875000C153.137000,99.068000,152.021000,99.877000,150.425000,100.143000C149.924000,100.229000,148.779000,100.213000,148.243000,100.122000C147.097000,99.907000,146.004000,99.335000,145.331000,98.599000C145.066000,98.312000,144.559000,97.546000,144.588000,97.497000L144.859000,97.325000L145.931000,96.702000L146.740000,96.229000L146.927000,96.479000C147.162000,96.852000,147.692000,97.352000,148,97.524000C148.930000,98.004000,150.174000,97.940000,150.789000,97.381000C151.055000,97.137000,151.169000,96.881000,151.169000,96.522000C151.169000,96.194000,151.119000,96.043000,150.954000,95.793000C150.725000,95.479000,150.267000,95.221000,148.980000,94.648000C147.499000,94.017000,146.869000,93.617000,146.283000,93.002000C145.946000,92.631000,145.638000,92.051000,145.496000,91.572000C145.389000,91.156000,145.352000,90.140000,145.453000,89.732000C145.760000,88.302000,146.841000,87.300000,148.386000,87.013000C148.887000,86.913000,150.068000,86.956000,150.561000,87.085000L150.547000,87.101000L150.547000,87.101000Z" transform="translate(0,0)" fill="rgb(106,106,170)" stroke="none" stroke-width="1"/></g><g id="e3aj64cna85175_tr" transform="translate(0,0) rotate(0)"><g id="e3aj64cna85175" transform="translate(0,0)"><path id="e3aj64cna85176" d="M72.915000,93.453000L72.915000,93.453000L72.883000,94.923000L72.915000,93.453000ZM75.672000,95.914000L75.246000,96.021000L75.672000,95.914000ZM76.092000,97.989000L76.092000,97.989000L73.542000,98.658000L76.092000,97.989000ZM76.099000,95.806000L75.673000,95.914000L76.099000,95.806000ZM76.271000,97.757000L76.277000,95.945000L76.271000,97.758000L76.271000,97.757000L76.271000,97.757000ZM83.651000,87.516000L83.830000,91.623000L83.651000,87.516000ZM81.522000,88.066000L81.645000,91.136000L81.522000,88.066000L81.522000,88.066000Z" fill="rgb(106,106,170)" stroke="none" stroke-width="1"/><path id="e3aj64cna85177" d="M83.464000,87.376000L81.692000,87.834000C81.594000,87.859000,81.517000,87.964000,81.520000,88.065000L81.645000,91.136000L81.768000,94.209000C81.772000,94.311000,81.695000,94.414000,81.597000,94.439000L80.343000,94.764000C79.103000,95.084000,79.025000,94.190000,78.974000,92.949000L78.974000,92.910000L78.962000,92.756000C78.962000,92.746000,78.961000,92.736000,78.961000,92.727000L78.940000,92.411000L78.917000,92.072000C78.911000,91.969000,78.903000,91.821000,78.897000,91.725000L78.822000,90.254000L78.746000,88.783000C78.740000,88.681000,78.655000,88.619000,78.557000,88.644000L76.740000,89.115000C76.641000,89.140000,76.564000,89.244000,76.569000,89.345000L76.657000,91.301000L76.747000,93.257000C76.747000,93.258000,76.747000,93.259000,76.747000,93.260000L76.755000,93.442000C76.837000,95.615000,77.463000,97.545000,79.928000,96.973000C79.968000,96.963000,79.999000,96.956000,79.999000,96.956000L83.840000,95.962000C83.939000,95.937000,84.015000,95.832000,84.011000,95.731000L83.833000,91.623000L83.654000,87.515000C83.646000,87.413000,83.563000,87.351000,83.464000,87.376000L83.464000,87.376000ZM92.132000,91.736000C92.231000,91.711000,92.316000,91.773000,92.320000,91.876000L92.365000,92.761000M92.411000,93.646000L92.367000,92.761000L92.411000,93.646000L92.411000,93.646000ZM92.243000,93.879000L92.243000,93.879000C91.723000,94.018000,90.160000,94.435000,88.983000,94.739000C90.416000,94.368000,92.242000,93.879000,92.243000,93.879000ZM87.115000,91.880000C87.089000,91.788000,87.153000,91.603000,87.252000,91.577000L87.029000,91.631000C87.189000,92.658000,87.115000,91.880000,87.115000,91.880000Z" fill="rgb(106,106,170)" stroke="none" stroke-width="1"/><path id="e3aj64cna85178" d="M89.143000,94.697000C89.132000,94.700000,89.121000,94.703000,89.109000,94.707000C89.120000,94.703000,89.131000,94.700000,89.143000,94.697000ZM92.132000,91.736000C92.231000,91.711000,92.316000,91.773000,92.320000,91.876000L92.365000,92.761000L92.373000,92.906000M89.982000,94.478000L89.974000,94.480000L89.982000,94.478000ZM89.547000,94.592000L89.521000,94.599000L89.547000,94.592000ZM89.414000,94.627000C89.400000,94.631000,89.387000,94.634000,89.372000,94.638000C89.387000,94.634000,89.400000,94.631000,89.414000,94.627000ZM89.279000,94.662000L89.243000,94.671000L89.279000,94.662000ZM89.521000,94.599000L89.414000,94.627000L89.521000,94.599000ZM92.244000,93.879000C91.863000,93.981000,90.921000,94.232000,89.980000,94.479000C90.919000,94.231000,91.862000,93.980000,92.244000,93.879000ZM92.412000,93.646000L92.374000,92.905000L92.412000,93.646000L92.412000,93.646000L92.412000,93.646000ZM89.373000,94.638000L89.279000,94.662000L89.373000,94.638000ZM89.109000,94.707000L88.983000,94.739000L89.109000,94.707000ZM89.242000,94.671000L89.142000,94.697000L89.242000,94.671000ZM62.522000,98.264000L62.482000,96.973000L62.529000,98.449000L62.593000,99.948000L62.536000,98.635000C62.532000,98.533000,62.526000,98.366000,62.522000,98.264000L62.522000,98.264000ZM64.484000,92.264000L62.539000,92.767000C62.440000,92.793000,62.363000,92.897000,62.366000,92.997000L62.391000,93.860000L62.418000,94.722000C62.420000,94.823000,62.504000,94.886000,62.602000,94.861000L64.563000,94.353000C64.660000,94.328000,64.738000,94.223000,64.734000,94.123000L64.702000,93.263000L64.670000,92.403000L64.670000,92.403000C64.667000,92.301000,64.583000,92.238000,64.484000,92.264000L64.484000,92.264000ZM64.762000,95.082000L64.762000,95.082000L64.874000,97.870000L64.762000,95.082000L64.762000,95.082000ZM61.372000,105.292000C61.372000,105.292000,62.356000,105.050000,62.980000,104.889000C62.507000,105.011000,61.722000,105.205000,61.372000,105.292000L61.372000,105.292000L61.372000,105.292000ZM62.441000,95.683000L62.483000,96.973000L62.441000,95.683000Z" fill="rgb(106,106,170)" stroke="none" stroke-width="1"/><path id="e3aj64cna85179" d="M64.576000,94.943000L62.616000,95.451000C62.517000,95.476000,62.439000,95.580000,62.443000,95.682000L62.484000,96.972000L62.524000,98.264000C62.528000,98.366000,62.534000,98.533000,62.539000,98.634000L62.596000,99.947000L62.654000,101.261000C62.658000,101.362000,62.655000,101.528000,62.649000,101.629000C62.649000,101.629000,62.564000,102.815000,61.945000,102.961000C61.920000,102.968000,61.894000,102.974000,61.868000,102.980000C61.568000,103.051000,61.332000,103.108000,61.332000,103.108000L61.332000,103.108000C61.233000,103.131000,61.154000,103.235000,61.156000,103.336000L61.174000,104.243000L61.192000,105.150000C61.194000,105.252000,61.275000,105.314000,61.374000,105.291000C61.724000,105.204000,62.508000,105.012000,62.982000,104.889000C64.521000,104.492000,65.111000,103.429000,64.997000,100.841000L64.877000,97.869000L64.764000,95.081000C64.758000,94.980000,64.674000,94.918000,64.576000,94.943000L64.576000,94.943000ZM93.887000,93.364000C93.788000,93.389000,93.705000,93.327000,93.701000,93.225000L93.388000,85.934000M95.891000,92.658000L95.724000,89.554000L95.891000,92.658000Z" fill="rgb(106,106,170)" stroke="none" stroke-width="1"/><path id="e3aj64cna85180" d="M93.744000,93.307000C93.720000,93.263000,93.695000,93.142000,93.691000,93.041000L93.544000,89.580000L93.699000,93.226000C93.703000,93.328000,93.787000,93.391000,93.886000,93.366000L94.066000,93.319000C93.967000,93.344000,93.768000,93.354000,93.744000,93.307000ZM95.810000,92.825000C95.762000,92.859000,95.643000,92.909000,95.544000,92.934000L95.723000,92.888000C95.821000,92.863000,95.898000,92.759000,95.891000,92.658000L95.881000,92.473000C95.887000,92.575000,95.857000,92.788000,95.810000,92.825000L95.810000,92.825000ZM95.809000,91.106000L95.736000,89.737000C95.735000,89.737000,95.736000,89.739000,95.735000,89.739000L95.809000,91.106000L95.809000,91.106000ZM100.344000,84.630000L100.511000,84.943000C100.559000,85.033000,100.516000,85.127000,100.418000,85.153000M95.882000,92.474000L95.809000,91.107000L95.882000,92.474000ZM100.173000,84.307000L100.342000,84.630000L100.173000,84.307000ZM95.736000,89.737000C95.730000,89.635000,95.721000,89.470000,95.718000,89.371000L95.658000,87.979000L95.724000,89.554000L95.736000,89.737000ZM93.381000,85.815000C93.386000,85.913000,93.392000,86.036000,93.395000,86.118000L93.544000,89.580000L93.388000,85.934000L93.381000,85.815000Z" fill="rgb(106,106,170)" stroke="none" stroke-width="1"/><path id="e3aj64cna85181" d="M100.510000,84.943000L100.343000,84.630000L100.174000,84.307000L100.088000,84.143000C99.768000,83.566000,99.209000,83.329000,98.193000,83.591000L96.611000,83.998000L95.156000,84.374000L93.517000,84.798000C93.419000,84.823000,93.342000,84.926000,93.347000,85.027000L93.364000,85.387000L93.383000,85.814000L93.389000,85.934000L93.545000,89.580000L93.693000,93.040000C93.697000,93.142000,93.720000,93.262000,93.744000,93.307000C93.769000,93.353000,93.968000,93.343000,94.067000,93.318000L95.544000,92.935000C95.643000,92.910000,95.763000,92.860000,95.810000,92.826000C95.859000,92.789000,95.888000,92.576000,95.883000,92.474000L95.810000,91.107000L95.737000,89.740000C95.737000,89.740000,95.737000,89.738000,95.737000,89.738000L95.727000,89.554000L95.660000,87.980000L95.600000,86.589000C95.597000,86.487000,95.674000,86.385000,95.771000,86.360000L100.420000,85.155000C100.516000,85.128000,100.557000,85.034000,100.510000,84.943000L100.510000,84.943000Z" fill="rgb(106,106,170)" stroke="none" stroke-width="1"/><path id="e3aj64cna85182" d="M105.711000,80.360000C105.613000,80.385000,105.452000,80.426000,105.353000,80.453000L103.865000,80.838000C103.767000,80.863000,103.658000,80.963000,103.624000,81.059000L101.581000,86.731000C101.546000,86.827000,101.479000,86.832000,101.433000,86.741000L100.916000,85.741000C100.869000,85.651000,100.750000,85.598000,100.651000,85.624000L98.536000,86.171000C98.438000,86.196000,98.399000,86.289000,98.451000,86.377000L100.257000,89.452000C100.308000,89.540000,100.351000,89.696000,100.351000,89.797000L100.354000,91.511000C100.354000,91.613000,100.434000,91.674000,100.533000,91.649000L102.624000,91.108000C102.722000,91.083000,102.802000,90.979000,102.802000,90.879000L102.799000,89.165000C102.799000,89.061000,102.830000,88.902000,102.870000,88.809000L106.378000,80.337000C106.417000,80.243000,106.369000,80.187000,106.270000,80.213000L105.711000,80.360000L105.711000,80.360000ZM89.979000,88.866000L89.978000,88.864000C89.995000,88.973000,89.915000,89.078000,89.817000,89.103000L87.135000,89.797000C87.042000,89.820000,86.979000,89.771000,86.973000,89.689000C86.973000,89.686000,86.973000,89.684000,86.974000,89.681000C86.974000,89.681000,86.973000,89.683000,86.972000,89.684000C86.972000,89.680000,86.971000,89.677000,86.971000,89.674000C86.971000,89.674000,86.972000,89.653000,86.972000,89.625000C87.051000,88.878000,87.458000,88.295000,88.438000,88.041000C89.542000,87.757000,89.897000,88.240000,89.979000,88.866000L89.979000,88.866000ZM88.391000,85.975000C84.949000,86.866000,84.673000,89.165000,84.762000,91.393000C84.861000,93.662000,85.420000,95.662000,88.983000,94.740000L89.109000,94.708000C89.120000,94.704000,89.131000,94.701000,89.143000,94.698000L89.373000,94.638000C89.387000,94.634000,89.400000,94.631000,89.415000,94.626000L89.522000,94.599000L89.547000,94.592000C89.687000,94.556000,89.830000,94.517000,89.974000,94.480000L89.982000,94.478000C90.920000,94.232000,91.862000,93.981000,92.244000,93.879000C92.342000,93.852000,92.418000,93.747000,92.412000,93.648000L92.374000,92.906000L92.367000,92.761000L92.322000,91.875000C92.317000,91.773000,92.232000,91.711000,92.134000,91.736000L88.931000,92.565000C87.658000,92.894000,87.192000,92.654000,87.074000,91.623000L92.194000,90.299000L92.193000,90.299000C92.194000,90.299000,92.195000,90.299000,92.196000,90.298000C92.277000,90.276000,92.338000,90.200000,92.349000,90.117000C92.350000,90.100000,92.350000,90.085000,92.349000,90.068000L92.348000,90.070000C92.366000,87.006000,91.648000,85.132000,88.391000,85.975000L88.391000,85.975000ZM72.918000,93.269000L72.914000,93.453000L72.913000,93.454000L72.882000,94.924000L72.849000,96.393000C72.847000,96.497000,72.765000,96.600000,72.666000,96.625000L70.620000,97.154000C69.068000,97.555000,68.375000,96.439000,68.290000,94.550000C68.194000,92.621000,68.641000,91.291000,70.139000,90.780000C72.187000,90.083000,72.984000,91.443000,72.918000,93.269000L72.918000,93.269000ZM75.092000,95.885000C75.092000,95.885000,75.450000,93.292000,75.320000,91.882000C75.153000,89.993000,73.565000,87.602000,70.063000,88.508000C66.580000,89.409000,65.716000,92.309000,65.845000,95.183000C65.979000,98.079000,67.357000,100.291000,70.815000,99.376000L73.544000,98.658000L76.095000,97.988000C76.193000,97.962000,76.273000,97.859000,76.273000,97.757000L76.279000,95.944000C76.280000,95.843000,76.199000,95.781000,76.101000,95.805000L75.674000,95.913000L75.247000,96.021000C75.164000,96.041000,75.102000,96,75.093000,95.925000C75.091000,95.913000,75.092000,95.898000,75.092000,95.885000L75.092000,95.885000L75.092000,95.885000L75.092000,95.885000Z" fill="rgb(106,106,170)" stroke="none" stroke-width="1"/><path id="e3aj64cna85183" d="M91.926000,89.856000C91.943000,89.921000,91.905000,89.987000,91.839000,90.003000C91.774000,90.020000,91.709000,89.982000,91.692000,89.916000C91.675000,89.850000,91.714000,89.786000,91.779000,89.770000C91.844000,89.753000,91.910000,89.791000,91.926000,89.856000Z" fill="rgb(106,106,170)" stroke="none" stroke-width="1"/></g></g><g id="e3aj64cna85184_tr" transform="translate(174.798000,61.872000) rotate(360)"><g id="e3aj64cna85184" transform="translate(-174.798000,-61.872000)"><path id="e3aj64cna85185" d="M164.903000,65.352000C163.737000,58.176000,166.819000,51.254000,173.894000,50.334000C172.918000,49.127000,171.586000,49.119000,170.973000,49.265000C169.890000,49.664000,169.923000,50.475000,168.696000,51.522000C167.475000,52.329000,166.861000,51.711000,165.972000,52.548000C165.083000,53.378000,165.702000,55.284000,165.330000,55.655000C164.962000,56.396000,163.814000,57.057000,163.605000,57.992000C163.433000,59.189000,164.074000,60.044000,164.049000,61.070000C164.122000,61.926000,163.313000,62.409000,163.429000,63.103000C163.778000,64.235000,164.450000,64.916000,164.766000,65.230000C164.840000,65.291000,164.916000,65.437000,164.903000,65.352000L164.903000,65.352000Z" fill="rgb(106,106,170)" stroke="none" stroke-width="1"/><path id="e3aj64cna85186" d="M177.493000,55.418000C177.234000,55.418000,177.025000,55.175000,177.025000,54.876000C177.025000,54.577000,177.234000,54.334000,177.493000,54.334000L177.493000,54.334000C177.751000,54.334000,177.962000,54.577000,177.962000,54.876000C177.962000,55.176000,177.751000,55.418000,177.493000,55.418000L177.493000,55.418000ZM165.177000,66.135000C164.056000,59.899000,167.525000,54.686000,174.241000,57.252000C178.182000,59.920000,183.141000,59.747000,183.364000,58.022000C183.916000,55.955000,180.851000,51.693000,176.269000,50.582000C167.179000,48.529000,162.278000,59.898000,165.177000,66.135000L165.177000,66.135000Z" fill="rgb(106,106,170)" stroke="none" stroke-width="1"/><path id="e3aj64cna85187" d="M180.088000,66.831000C181.438000,66.999000,182.719000,66.625000,183.906000,65.505000C182.113000,67.820000,179.870000,68.985000,177.297000,69.301000C178.525000,70.510000,179.710000,71.054000,180.844000,70.822000C177.694000,71.828000,175.055000,70.720000,171.845000,67.021000C171.676000,68.017000,172.585000,69.569000,173.522000,70.559000C168.086000,67.832000,167.609000,59.336000,174.239000,57.246000C167.367000,53.425000,163.481000,60.849000,165.389000,66.933000C167.258000,71.619000,172.235000,75.226000,177.691000,74.433000C180.340000,74.058000,184.297000,71.944000,185.914000,66.933000C184.775000,68.116000,182.738000,69.146000,181.830000,69.225000C184.905000,67.446000,186.566000,64.424000,186.100000,60.292000C185.463000,62.048000,184.622000,63.396000,183.571000,64.321000C185.805000,60.292000,185.422000,58.210000,183.768000,55.922000C184.949000,59.685000,183.420000,63.861000,180.088000,66.831000L180.088000,66.831000Z" fill="rgb(106,106,170)" stroke="none" stroke-width="1"/><path id="e3aj64cna85188" d="M178.510000,71.166000C178.276000,71.115000,179.039000,71.523000,177.565000,71.072000C176.091000,70.620000,174.590000,70.185000,171.845000,67.021000C171.676000,68.017000,172.585000,69.569000,173.522000,70.560000C176.051000,72.601000,174.331000,71.647000,178.184000,73.188000C178.494000,72.474000,178.510000,71.842000,178.510000,71.166000Z" fill="rgb(106,106,170)" stroke="none" stroke-width="1"/><path id="e3aj64cna85189" d="M173.609000,55.137000C173.609000,55.137000,173.945000,54.565000,174.075000,54.308000C174.235000,53.992000,174.480000,53.414000,174.480000,53.414000C174.480000,53.414000,171.901000,52.440000,171.267000,52.322000C169.300000,52.912000,169.293000,53.867000,170.393000,55.327000C170.517000,55.489000,173.609000,55.137000,173.609000,55.137000L173.609000,55.137000Z" fill="rgb(106,106,170)" stroke="none" stroke-width="1"/></g></g><g id="e3aj64cna85190_to" transform="translate(0,0)"><g id="e3aj64cna85190" transform="translate(0,0)"><path id="e3aj64cna85191" d="M483.376000,139.462000L462.909000,139.462000C461.657000,139.462000,460.641000,140.477000,460.641000,141.729000L460.641000,162.196000C460.641000,163.448000,461.657000,164.463000,462.909000,164.463000L483.376000,164.463000C484.628000,164.463000,485.642000,163.448000,485.642000,162.196000L485.642000,141.729000C485.642000,140.477000,484.628000,139.462000,483.376000,139.462000ZM468.997000,144.318000C469.828000,144.318000,470.524000,144.969000,470.524000,145.822000C470.524000,146.676000,469.828000,147.327000,468.997000,147.327000C468.166000,147.327000,467.470000,146.676000,467.470000,145.822000C467.470000,144.970000,468.166000,144.318000,468.997000,144.318000ZM479.214000,158.714000C477.665000,158.714000,476.924000,157.794000,476.924000,156.535000C476.924000,156.177000,476.969000,155.794000,477.081000,155.412000L477.821000,152.763000C477.911000,152.471000,477.934000,152.201000,477.934000,151.954000C477.934000,151.100000,477.417000,150.584000,476.586000,150.584000C475.529000,150.584000,474.834000,151.342000,474.475000,152.802000L473.037000,158.567000L470.521000,158.567000L470.973000,156.755000C470.234000,157.970000,469.206000,158.723000,467.940000,158.723000C466.414000,158.723000,465.695000,157.842000,465.695000,156.517000C465.695000,156.181000,465.740000,155.768000,465.830000,155.387000L466.975000,150.707000L465.202000,150.707000L465.741000,148.718000L470.008000,148.718000L468.323000,155.401000C468.211000,155.828000,468.166000,156.182000,468.166000,156.428000C468.166000,156.856000,468.376000,156.981000,468.705000,157.055000C468.905000,157.100000,470.501000,157.069000,471.370000,155.137000L472.477000,150.707000L470.680000,150.707000L471.219000,148.718000L475.059000,148.718000L474.565000,150.977000C475.239000,149.719000,476.586000,148.523000,477.911000,148.523000C479.327000,148.523000,480.495000,149.532000,480.495000,151.462000C480.495000,151.956000,480.427000,152.494000,480.247000,153.101000L479.528000,155.683000C479.462000,155.953000,479.417000,156.177000,479.417000,156.379000C479.417000,156.828000,479.597000,157.053000,479.933000,157.053000C480.271000,157.053000,480.697000,156.805000,481.191000,155.436000L482.179000,155.817000C481.595000,157.860000,480.540000,158.714000,479.214000,158.714000Z" fill="rgb(106,106,170)" stroke="none" stroke-width="1"/></g></g><g id="e3aj64cna85192" display="none"><g id="e3aj64cna85193" transform="matrix(1 0 0 1 0.17000000000000 30.90100000000000)"><path id="e3aj64cna85194" d="M462.174000,94.848000L471.097000,112.314000L456.098000,94.848000L462.174000,94.848000Z" fill="none" stroke="rgb(125,125,125)" stroke-width="0.750000" stroke-miterlimit="10"/></g><g id="e3aj64cna85195" transform="matrix(-1 0 0 1 94.64000000000000 30.90100000000000)"><path id="e3aj64cna85196" d="M480.023000,94.848000L471.099000,112.314000L486.097000,94.848000L480.023000,94.848000Z" fill="none" stroke="rgb(125,125,125)" stroke-width="0.750000" stroke-miterlimit="10"/></g><g id="e3aj64cna85197" transform="matrix(1 0 0 1 19.30000000000000 30.90100000000000)"><path id="e3aj64cna85198" d="M462.173000,94.848000L480.020000,94.848000L471.097000,112.314000L462.173000,94.848000Z" fill="none" stroke="rgb(125,125,125)" stroke-width="0.750000" stroke-miterlimit="10"/></g><g id="e3aj64cna85199" transform="matrix(1 0 0 1 19.30000000000000 0.42000000000000)"><path id="e3aj64cna851100" d="M471.097000,85.168000L462.643000,86.062000L462.173000,94.848000L471.097000,85.168000Z" fill="none" stroke="rgb(125,125,125)" stroke-width="0.750000" stroke-miterlimit="10"/></g><g id="e3aj64cna851101" transform="matrix(-1 0 0 1 75.50000000000000 0.42000000000000)"><path id="e3aj64cna851102" d="M471.097000,85.168000L479.551000,86.062000L480.020000,94.848000L471.097000,85.168000Z" fill="none" stroke="rgb(125,125,125)" stroke-width="0.750000" stroke-miterlimit="10"/></g><g id="e3aj64cna851103" transform="matrix(-1 0 0 1 94.64000000000000 3.23400000000000)"><path id="e3aj64cna851104" d="M486.098000,94.848000L479.553000,86.062000L480.024000,94.848000L486.098000,94.848000Z" fill="none" stroke="rgb(125,125,125)" stroke-width="0.750000" stroke-miterlimit="10"/></g><g id="e3aj64cna851105" transform="matrix(1 0 0 1 0.17000000000000 3.23400000000000)"><path id="e3aj64cna851106" d="M456.098000,94.848000L462.643000,86.062000L462.174000,94.848000L456.098000,94.848000Z" fill="none" stroke="rgb(125,125,125)" stroke-width="0.750000" stroke-miterlimit="10"/></g><g id="e3aj64cna851107" transform="matrix(1 0 0 1 19.30000000000000 0.42000000000000)"><path id="e3aj64cna851108" d="M471.097000,85.168000L462.173000,94.848000L480.020000,94.848000L471.097000,85.168000Z" fill="none" stroke="rgb(125,125,125)" stroke-width="0.750000" stroke-miterlimit="10"/></g></g><g id="e3aj64cna851109"><g id="e3aj64cna851110_to" transform="translate(0,0)"><g id="e3aj64cna851110" transform="skewX(-3) skewY(0) translate(0,0)" filter="url(#e3aj64cna851110-filter)"><g id="e3aj64cna851111" transform="matrix(1 0 0 1 498 107)"><path id="e3aj64cna851112" d="M-378.639000,75.322000L-379.493000,75.322000L-379.489000,81.667000L-376.043000,81.667000L-376.043000,80.882000L-378.640000,80.882000L-378.640000,75.322000Z" fill="rgb(106,106,170)" stroke="none" stroke-width="1"/><path id="e3aj64cna851113" d="M-372.758000,80.548000C-372.971000,80.773000,-373.330000,80.996000,-373.815000,80.996000C-374.465000,80.996000,-374.725000,80.679000,-374.725000,80.262000C-374.725000,79.632000,-374.287000,79.330000,-373.362000,79.330000C-373.190000,79.330000,-372.909000,79.351000,-372.763000,79.377000L-372.763000,80.548000L-372.758000,80.548000ZM-373.637000,76.707000C-374.325000,76.707000,-374.954000,76.951000,-375.449000,77.357000L-375.147000,77.878000C-374.798000,77.675000,-374.372000,77.472000,-373.762000,77.472000C-373.065000,77.472000,-372.752000,77.831000,-372.752000,78.430000L-372.752000,78.743000C-372.888000,78.712000,-373.168000,78.696000,-373.340000,78.696000C-374.834000,78.696000,-375.589000,79.217000,-375.589000,80.315000C-375.589000,81.294000,-374.990000,81.788000,-374.080000,81.788000C-373.465000,81.788000,-372.877000,81.507000,-372.674000,81.054000L-372.518000,81.674000L-371.924000,81.674000L-371.924000,78.420000C-371.924000,77.394000,-372.373000,76.707000,-373.637000,76.707000Z" fill="rgb(106,106,170)" stroke="none" stroke-width="1"/><path id="e3aj64cna851114" d="M-369.176000,81.027000C-369.494000,81.027000,-369.776000,80.991000,-369.989000,80.891000L-369.989000,77.951000C-369.698000,77.706000,-369.339000,77.534000,-368.885000,77.534000C-368.063000,77.534000,-367.740000,78.117000,-367.740000,79.055000C-367.741000,80.397000,-368.255000,81.027000,-369.176000,81.027000M-368.817000,76.707000C-369.578000,76.707000,-369.989000,77.228000,-369.989000,77.228000L-369.989000,76.406000L-369.995000,75.323000L-370.827000,75.323000L-370.821000,81.512000C-370.405000,81.683000,-369.833000,81.783000,-369.214000,81.783000C-367.626000,81.783000,-366.860000,80.767000,-366.860000,79.013000C-366.860000,77.623000,-367.569000,76.707000,-368.817000,76.707000" fill="rgb(106,106,170)" stroke="none" stroke-width="1"/><path id="e3aj64cna851115" d="M-387.905000,76.010000C-387.150000,76.010000,-386.667000,76.260000,-386.343000,76.515000L-385.979000,75.879000C-386.479000,75.442000,-387.150000,75.203000,-387.864000,75.203000C-389.675000,75.203000,-390.944000,76.306000,-390.944000,78.534000C-390.944000,80.866000,-389.576000,81.776000,-388.008000,81.776000C-387.223000,81.776000,-386.557000,81.594000,-386.119000,81.407000L-386.135000,78.914000L-386.135000,78.128000L-388.461000,78.128000L-388.461000,78.914000L-386.978000,78.914000L-386.962000,80.809000C-387.154000,80.908000,-387.493000,80.981000,-387.951000,80.981000C-389.211000,80.981000,-390.055000,80.190000,-390.055000,78.519000C-390.055000,76.832000,-389.180000,76.010000,-387.905000,76.010000" fill="rgb(106,106,170)" stroke="none" stroke-width="1"/><path id="e3aj64cna851116" d="M-381.909000,75.322000L-382.741000,75.322000L-382.736000,76.389000L-382.736000,80.064000C-382.736000,81.089000,-382.289000,81.776000,-381.024000,81.776000C-380.846000,81.776000,-380.674000,81.760000,-380.508000,81.729000L-380.508000,80.980000C-380.627000,81.001000,-380.758000,81.011000,-380.893000,81.011000C-381.590000,81.011000,-381.898000,80.652000,-381.898000,80.053000L-381.898000,77.518000L-380.514000,77.518000L-380.514000,76.821000L-381.909000,76.821000L-381.909000,75.322000Z" fill="rgb(106,106,170)" stroke="none" stroke-width="1"/><path id="e3aj64cna851117" d="M-384.854000,81.662000L-384.022000,81.662000L-384.022000,76.821000L-384.854000,76.821000L-384.854000,81.662000Z" fill="rgb(106,106,170)" stroke="none" stroke-width="1"/><path id="e3aj64cna851118" d="M-384.854000,76.155000L-384.022000,76.155000L-384.022000,75.322000L-384.854000,75.322000L-384.854000,76.155000Z" fill="rgb(106,106,170)" stroke="none" stroke-width="1"/></g><g id="e3aj64cna851119"><path id="e3aj64cna851120" d="M90.753000,194.347000L94.292000,183.452000L87.213000,183.452000L90.753000,194.347000Z" fill="rgb(106,106,170)" stroke="none" stroke-width="1"/><path id="e3aj64cna851121" d="M90.753000,194.347000L87.213000,183.452000L82.253000,183.452000L90.753000,194.347000L90.753000,194.347000Z" fill="rgb(106,106,170)" stroke="none" stroke-width="1"/><path id="e3aj64cna851122" d="M82.253000,183.452000L81.175000,186.763000C81.076000,187.065000,81.186000,187.398000,81.441000,187.579000L90.754000,194.347000L82.253000,183.452000Z" fill="rgb(106,106,170)" stroke="none" stroke-width="1"/><path id="e3aj64cna851123" d="M82.253000,183.452000L87.213000,183.452000L85.079000,176.889000C84.970000,176.550000,84.491000,176.550000,84.382000,176.889000L82.253000,183.452000Z" fill="rgb(106,106,170)" stroke="none" stroke-width="1"/><path id="e3aj64cna851124" d="M90.753000,194.347000L94.292000,183.452000L99.253000,183.452000L90.753000,194.347000Z" fill="rgb(106,106,170)" stroke="none" stroke-width="1"/><path id="e3aj64cna851125" d="M99.253000,183.452000L100.330000,186.763000C100.429000,187.065000,100.319000,187.398000,100.064000,187.579000L90.752000,194.347000L99.253000,183.452000L99.253000,183.452000Z" fill="rgb(106,106,170)" stroke="none" stroke-width="1"/><path id="e3aj64cna851126" d="M99.253000,183.452000L94.292000,183.452000L96.427000,176.889000C96.536000,176.550000,97.015000,176.550000,97.124000,176.889000L99.253000,183.452000Z" fill="rgb(106,106,170)" stroke="none" stroke-width="1"/></g></g></g></g><g id="e3aj64cna851127_to" transform="translate(0,0)"><g id="e3aj64cna851127" transform="translate(0,0)"><path id="e3aj64cna851128" d="M139.888000,43.692000C140.932000,42.441000,141.561000,40.833000,141.561000,39.081000C141.561000,35.106000,138.327000,31.872000,134.352000,31.872000L125.860000,31.872000C127.935000,33.138000,129.652000,34.934000,130.822000,37.069000L134.352000,37.069000C135.461000,37.069000,136.364000,37.971000,136.364000,39.081000C136.364000,40.191000,135.462000,41.093000,134.352000,41.093000L133.559000,41.093000L133.559000,41.093000L132.269000,41.093000C132.433000,41.943000,132.521000,42.817000,132.521000,43.712000C132.521000,44.594000,132.435000,45.456000,132.276000,46.292000L134.352000,46.292000C135.461000,46.292000,136.364000,47.194000,136.364000,48.304000C136.364000,49.414000,135.462000,50.316000,134.352000,50.316000L130.845000,50.316000C130.582000,50.800000,130.287000,51.263000,129.970000,51.712000L133.830000,55.515000L134.353000,55.515000C138.218000,55.515000,141.382000,52.457000,141.554000,48.633000L141.554000,48.633000C141.552000,48.676000,141.549000,48.718000,141.547000,48.760000C141.557000,48.610000,141.563000,48.457000,141.563000,48.305000C141.561000,46.551000,140.932000,44.943000,139.888000,43.692000Z" fill="rgb(106,106,170)" stroke="none" stroke-width="1"/><path id="e3aj64cna851129" d="M125.920000,55.513000L133.828000,55.513000L129.968000,51.710000C128.888000,53.232000,127.512000,54.530000,125.920000,55.513000Z" fill="rgb(120,120,120)" stroke="none" stroke-width="1"/><path id="e3aj64cna851130" d="M128.509000,50.272000C129.765000,48.393000,130.500000,46.136000,130.500000,43.711000C130.500000,37.183000,125.188000,31.871000,118.658000,31.871000L116.561000,31.871000L116.561000,37.068000L118.658000,37.068000C122.321000,37.068000,125.301000,40.047000,125.301000,43.711000C125.301000,44.707000,125.079000,45.653000,124.684000,46.502000L124.684000,46.502000C123.627000,48.773000,121.324000,50.354000,118.658000,50.354000L116.561000,50.354000L116.561000,55.551000L118.658000,55.551000C122.761000,55.551000,126.384000,53.453000,128.509000,50.272000Z" fill="rgb(106,106,170)" stroke="none" stroke-width="1"/></g></g><g id="e3aj64cna851131"><g id="e3aj64cna851132_tr" transform="translate(223.789000,105.292001) rotate(24)"><g id="e3aj64cna851132" transform="translate(-219.788006,-102.314000)"><path id="e3aj64cna851133" d="M217.012000,102.579000L222.882000,103.915000L221.553000,96.190000L217.012000,102.579000L217.012000,102.579000ZM224.086000,85.059000L206.774000,87.148000L204.391000,108.942000L216.232000,119.569000L231.506000,115.112000L238.788000,94.432000L224.086000,85.059000ZM228.125000,113.671000L224.381000,112.819000L223.509000,107.321000L214.989000,105.382000L211.824000,109.962000L208.073000,109.108000L223.218000,88.872000L228.125000,113.671000Z" fill="rgb(106,106,170)" stroke="none" stroke-width="1"/></g></g></g><g id="e3aj64cna851134_to" transform="translate(0,0)"><g id="e3aj64cna851134" transform="translate(0,0)"><path id="e3aj64cna851135" d="M439.900000,89.669000L436.016000,89.669000C435.542000,89.669000,435.101000,89.386000,434.879000,88.976000L433.995000,87.144000C433.363000,85.849000,432.036000,85.028000,430.584000,85.028000L426.795000,85.028000C425.343000,85.028000,424.048000,85.848000,423.384000,87.144000L422.500000,88.976000C422.278000,89.417000,421.837000,89.669000,421.363000,89.669000L417.479000,89.669000C415.394000,89.669000,413.689000,91.374000,413.689000,93.460000L413.689000,108.206000C413.689000,110.290000,415.394000,111.995000,417.479000,111.995000L439.899000,111.995000C441.984000,111.995000,443.689000,110.290000,443.689000,108.206000L443.689000,93.460000C443.690000,91.374000,441.985000,89.669000,439.900000,89.669000ZM441.164000,108.206000C441.164000,108.901000,440.596000,109.470000,439.900000,109.470000L417.480000,109.470000C416.785000,109.470000,416.216000,108.902000,416.216000,108.206000L416.216000,93.460000C416.216000,92.765000,416.784000,92.196000,417.480000,92.196000L421.364000,92.196000C422.816000,92.196000,424.111000,91.374000,424.774000,90.081000L425.658000,88.249000C425.880000,87.806000,426.322000,87.554000,426.796000,87.554000L430.585000,87.554000C431.059000,87.554000,431.501000,87.839000,431.723000,88.249000L432.607000,90.081000C433.239000,91.374000,434.565000,92.196000,436.017000,92.196000L439.901000,92.196000C440.596000,92.196000,441.165000,92.764000,441.165000,93.460000L441.165000,108.206000Z" fill="rgb(106,106,170)" stroke="none" stroke-width="1"/><path id="e3aj64cna851136" d="M428.690000,93.396000C424.932000,93.396000,421.900000,96.460000,421.900000,100.185000C421.900000,103.912000,424.932000,106.976000,428.690000,106.976000C432.448000,106.976000,435.480000,103.912000,435.480000,100.185000C435.480000,96.460000,432.448000,93.396000,428.690000,93.396000ZM428.690000,104.448000C426.322000,104.448000,424.427000,102.522000,424.427000,100.184000C424.427000,97.848000,426.322000,95.922000,428.690000,95.922000C431.058000,95.922000,432.953000,97.848000,432.953000,100.184000C432.953000,102.522000,431.059000,104.448000,428.690000,104.448000Z" fill="rgb(106,106,170)" stroke="none" stroke-width="1"/></g></g><g id="e3aj64cna851137_to" transform="translate(0,0)"><g id="e3aj64cna851137" transform="translate(0,0)"><path id="e3aj64cna851138" d="M223.789000,31.872000L223.789000,61.872000L253.789000,61.872000L253.789000,31.872000L223.789000,31.872000ZM240.115000,55.270000C240.115000,58.190000,238.404000,59.519000,235.907000,59.519000C233.652000,59.519000,232.343000,58.351000,231.678000,56.942000L231.678000,56.942000L233.973000,55.552000C234.416000,56.337000,234.819000,57.002000,235.786000,57.002000C236.712000,57.002000,237.297000,56.640000,237.297000,55.230000L237.297000,45.644000L240.116000,45.644000L240.116000,55.270000ZM246.781000,59.519000C244.163000,59.519000,242.471000,58.271000,241.646000,56.640000L241.646000,56.639000L243.942000,55.311000C244.546000,56.297000,245.332000,57.022000,246.721000,57.022000C247.889000,57.022000,248.634000,56.438000,248.634000,55.632000C248.634000,54.666000,247.869000,54.323000,246.580000,53.760000L245.875000,53.457000C243.841000,52.592000,242.492000,51.504000,242.492000,49.208000C242.492000,47.094000,244.103000,45.482000,246.620000,45.482000C248.412000,45.482000,249.701000,46.107000,250.627000,47.738000L248.432000,49.148000C247.949000,48.282000,247.425000,47.939000,246.619000,47.939000C245.793000,47.939000,245.270000,48.463000,245.270000,49.148000C245.270000,49.994000,245.793000,50.336000,247.001000,50.860000L247.706000,51.162000C250.102000,52.189000,251.452000,53.236000,251.452000,55.592000C251.453000,58.130000,249.459000,59.519000,246.781000,59.519000Z" fill="rgb(106,106,170)" stroke="none" stroke-width="1"/></g></g><g id="e3aj64cna851139_to" transform="translate(38,0)"><path id="e3aj64cna851139" d="M464.849000,38.335000L492.349000,38.335000L492.349000,65.085000L464.849000,65.085000L464.849000,38.335000ZM463.599000,66.335000L493.599000,66.335000L493.599000,37.085000L463.599000,37.085000L463.599000,66.335000ZM483.249000,47.510000C483.249000,47.410000,483.286000,47.361000,483.399000,47.361000L485.362000,47.361000C485.462000,47.361000,485.511000,47.398000,485.511000,47.510000L485.511000,57.372000C485.511000,57.473000,485.487000,57.522000,485.362000,57.522000L483.424000,57.522000C483.299000,57.522000,483.261000,57.459000,483.261000,57.360000L483.261000,47.510000L483.249000,47.510000L483.249000,47.510000ZM483.112000,44.673000C483.112000,43.872000,483.675000,43.398000,484.386000,43.398000C485.149000,43.398000,485.660000,43.911000,485.660000,44.673000C485.660000,45.497000,485.123000,45.947000,484.361000,45.947000C483.637000,45.948000,483.112000,45.498000,483.112000,44.673000ZM477.487000,51.623000C477.136000,50.236000,476.311000,47.211000,475.999000,45.748000L475.974000,45.748000C475.712000,47.211000,475.050000,49.686000,474.525000,51.623000L477.487000,51.623000ZM474.012000,53.648000L473.025000,57.398000C473,57.498000,472.962000,57.523000,472.837000,57.523000L470.999000,57.523000C470.874000,57.523000,470.849000,57.486000,470.874000,57.335000L474.425000,44.910000C474.488000,44.684000,474.525000,44.485000,474.550000,43.872000C474.550000,43.785000,474.587000,43.747000,474.650000,43.747000L477.275000,43.747000C477.363000,43.747000,477.400000,43.772000,477.425000,43.872000L481.400000,57.360000C481.425000,57.460000,481.400000,57.522000,481.300000,57.522000L479.224000,57.522000C479.124000,57.522000,479.062000,57.497000,479.036000,57.410000L478.012000,53.647000L474.012000,53.647000L474.012000,53.648000Z" transform="translate(0,0)" fill="rgb(106,106,170)" stroke="none" stroke-width="1"/></g></svg>