<?xml version="1.0" encoding="utf-8"?>
<!-- Generator: Adobe Illustrator 16.0.3, SVG Export Plug-In . SVG Version: 6.00 Build 0)  -->
<!DOCTYPE svg PUBLIC "-//W3C//DTD SVG 1.1//EN" "http://www.w3.org/Graphics/SVG/1.1/DTD/svg11.dtd">
<svg version="1.1" id="Layer_1" xmlns="http://www.w3.org/2000/svg" xmlns:xlink="http://www.w3.org/1999/xlink" x="0px" y="0px"
	 width="66.548px" height="104.982px" viewBox="0 0 66.548 104.982" enable-background="new 0 0 66.548 104.982"
	 xml:space="preserve">
<path fill="#DB354D" d="M36.774,13.157c0,0,17.514-1.377,17.514,14.084c0,7.378-0.112,48.065-0.112,48.065
	S53.541,91.104,37.073,93.34l0.149,8.271c0,0,24.068,0.97,25.635-28.912l-0.076-44.34c0,0,1.275-23.698-26.155-23.698L36.774,13.157
	z"/>
<g>
	<g>
		<path fill="none" stroke="#DB354D" stroke-width="2" stroke-linecap="round" stroke-miterlimit="10" d="M16.176,45.058
			l-0.745-4.786c0,0-0.099-2.044,2.558-1.908l11.167-0.007c0,0,2.451,0.006,2.103,2.459l-1.294,5.166c0,0-1.242,1.917-2.754,1.781
			l-9.023,0.008C18.188,47.771,16.485,47.052,16.176,45.058z"/>
		<path fill="none" stroke="#DB354D" stroke-width="2" stroke-linecap="round" stroke-miterlimit="10" d="M49.737,44.709
			l0.745-4.785c0,0,0.098-2.044-2.557-1.908l-11.168-0.007c0,0-2.453,0.007-2.104,2.46l1.297,5.166c0,0,1.24,1.917,2.75,1.781
			l9.024,0.008C47.725,47.422,49.427,46.705,49.737,44.709z"/>
		
			<line fill="none" stroke="#DB354D" stroke-width="2" stroke-linecap="round" stroke-miterlimit="10" x1="31.258" y1="40.816" x2="34.653" y2="40.467"/>
		
			<line fill="none" stroke="#DB354D" stroke-width="2" stroke-linecap="round" stroke-miterlimit="10" x1="16.091" y1="38.839" x2="13.693" y2="38.839"/>
	</g>
	
		<line fill="none" stroke="#DB354D" stroke-width="2" stroke-linecap="round" stroke-miterlimit="10" x1="51.275" y1="38.839" x2="53.452" y2="38.839"/>
</g>
<path fill="#DB354D" d="M30.387,4.661C4.565,5.892,4.23,31.489,4.23,31.489v43.817h8.645V31.489
	c0-17.751,17.661-18.332,17.661-18.332L30.387,4.661z"/>
</svg>
