<?xml version="1.0" encoding="utf-8"?>
<!-- Generator: Adobe Illustrator 16.0.3, SVG Export Plug-In . SVG Version: 6.00 Build 0)  -->
<!DOCTYPE svg PUBLIC "-//W3C//DTD SVG 1.1//EN" "http://www.w3.org/Graphics/SVG/1.1/DTD/svg11.dtd">
<svg version="1.1" id="Layer_1" xmlns="http://www.w3.org/2000/svg" xmlns:xlink="http://www.w3.org/1999/xlink" x="0px" y="0px"
	 width="185.765px" height="149.822px" viewBox="0 0 185.765 149.822" enable-background="new 0 0 185.765 149.822"
	 xml:space="preserve">
<path fill="#DB354D" d="M89.546,22.865c0,0,11.51-0.905,11.51,9.256c0,4.849-0.073,31.588-0.073,31.588s-0.417,10.383-11.24,11.853
	l0.099,5.436c0,0,15.818,0.637,16.847-19.001l-0.05-29.141c0,0,0.838-15.574-17.188-15.574L89.546,22.865z"/>
<g>
	<g>
		<path fill="none" stroke="#DB354D" stroke-width="1.5" stroke-linecap="round" stroke-miterlimit="10" d="M76.009,43.83
			l-0.49-3.145c0,0-0.064-1.344,1.681-1.254l7.34-0.004c0,0,1.61,0.003,1.382,1.615l-0.852,3.395c0,0-0.815,1.261-1.81,1.172
			l-5.93,0.004C77.332,45.613,76.212,45.141,76.009,43.83z"/>
		<path fill="none" stroke="#DB354D" stroke-width="1.5" stroke-linecap="round" stroke-miterlimit="10" d="M98.066,43.601
			l0.49-3.145c0,0,0.063-1.344-1.681-1.254l-7.34-0.005c0,0-1.612,0.005-1.383,1.616l0.852,3.396c0,0,0.815,1.261,1.809,1.17
			l5.931,0.005C96.744,45.384,97.862,44.914,98.066,43.601z"/>
		
			<line fill="none" stroke="#DB354D" stroke-width="1.5" stroke-linecap="round" stroke-miterlimit="10" x1="85.921" y1="41.042" x2="88.153" y2="40.814"/>
		
			<line fill="none" stroke="#DB354D" stroke-width="1.5" stroke-linecap="round" stroke-miterlimit="10" x1="75.953" y1="39.744" x2="74.376" y2="39.744"/>
	</g>
	
		<line fill="none" stroke="#DB354D" stroke-width="1.5" stroke-linecap="round" stroke-miterlimit="10" x1="99.077" y1="39.744" x2="100.507" y2="39.744"/>
</g>
<path fill="#DB354D" d="M85.349,17.282c-16.971,0.809-17.19,17.631-17.19,17.631v28.797h5.681V34.913
	c0-11.666,11.607-12.048,11.607-12.048L85.349,17.282z"/>
<g>
	<path fill="#282661" d="M32.379,90.468c0.246,0,0.463,0.086,0.651,0.258c0.188,0.172,0.283,0.397,0.283,0.676
		c0,0.361-0.156,0.631-0.467,0.812c-0.049,0.033-0.266,0.188-0.651,0.467c-0.385,0.278-0.807,0.729-1.266,1.352
		c-0.459,0.623-0.901,1.446-1.327,2.47c-0.426,1.024-0.697,2.29-0.811,3.797c-0.033,0.263-0.054,0.524-0.062,0.787
		c-0.008,0.262-0.021,0.524-0.037,0.786c0.295-0.033,0.603-0.062,0.922-0.086s0.659-0.037,1.02-0.037
		c1.18,0,2.318,0.132,3.416,0.394c1.097,0.262,2.105,0.639,3.022,1.13c2.375-0.949,4.194-2.212,5.456-3.784
		c1.262-1.573,1.893-3.326,1.893-5.26c0-1.441-0.36-2.724-1.081-3.846c-0.722-1.122-1.733-2.068-3.036-2.839
		c-1.302-0.77-2.859-1.359-4.669-1.77c-1.811-0.409-3.797-0.614-5.959-0.614c-1.884,0-3.806,0.144-5.763,0.431
		c-1.958,0.286-3.85,0.717-5.677,1.29c-1.827,0.573-3.543,1.286-5.148,2.138c-1.606,0.853-3.007,1.831-4.203,2.938
		c-1.196,1.105-2.138,2.339-2.826,3.698c-0.688,1.36-1.032,2.835-1.032,4.424c0,1.18,0.205,2.216,0.615,3.108
		c0.409,0.894,0.954,1.639,1.634,2.236c0.68,0.599,1.462,1.049,2.347,1.352c0.885,0.304,1.811,0.455,2.777,0.455
		c1.146,0,2.154-0.114,3.023-0.344c0.868-0.229,1.597-0.479,2.187-0.75s1.036-0.524,1.339-0.762s0.471-0.372,0.504-0.405
		c0.114-0.082,0.246-0.176,0.393-0.283c0.147-0.106,0.303-0.159,0.467-0.159c0.246,0,0.458,0.086,0.639,0.258
		c0.18,0.172,0.271,0.39,0.271,0.651s-0.09,0.476-0.271,0.639c-0.033,0.033-0.242,0.209-0.626,0.528
		c-0.385,0.319-0.938,0.66-1.659,1.021c-0.721,0.36-1.602,0.688-2.642,0.982c-1.041,0.295-2.233,0.442-3.576,0.442
		c-1.245,0-2.429-0.204-3.551-0.614c-1.123-0.409-2.11-0.999-2.961-1.77c-0.852-0.77-1.528-1.708-2.028-2.813
		c-0.5-1.106-0.75-2.363-0.75-3.772c0-1.557,0.319-3.052,0.958-4.485s1.54-2.772,2.704-4.019c1.163-1.244,2.556-2.371,4.178-3.379
		s3.412-1.871,5.37-2.593c1.958-0.721,4.059-1.277,6.304-1.671s4.563-0.59,6.955-0.59c2.441,0,4.682,0.242,6.722,0.725
		c2.04,0.483,3.797,1.18,5.271,2.089c1.475,0.91,2.621,2.024,3.44,3.343c0.819,1.319,1.229,2.813,1.229,4.485
		c0,2.212-0.635,4.219-1.904,6.021c-1.27,1.803-3.133,3.302-5.591,4.498c0.901,0.77,1.609,1.667,2.125,2.69
		c0.516,1.024,0.901,2.061,1.155,3.109c0.254,1.049,0.418,2.048,0.492,2.998s0.126,1.745,0.16,2.384
		c0.033,0.934,0.119,1.692,0.258,2.273c0.139,0.582,0.335,1.036,0.59,1.364c0.253,0.327,0.564,0.553,0.934,0.676
		c0.368,0.122,0.814,0.184,1.339,0.184c0.737,0,1.417-0.176,2.04-0.528c0.623-0.352,1.184-0.79,1.683-1.314
		c0.5-0.524,0.942-1.094,1.327-1.708s0.708-1.188,0.971-1.721c0.262-0.532,0.463-0.975,0.603-1.327
		c0.139-0.352,0.208-0.536,0.208-0.553c0.164-0.409,0.451-0.614,0.86-0.614c0.278,0,0.504,0.095,0.676,0.282
		c0.172,0.188,0.259,0.406,0.259,0.651c0,0.082-0.017,0.188-0.05,0.319c-0.017,0.066-0.11,0.316-0.282,0.75
		c-0.172,0.435-0.422,0.958-0.75,1.573c-0.328,0.614-0.737,1.273-1.229,1.978c-0.491,0.705-1.061,1.356-1.708,1.954
		c-0.647,0.599-1.375,1.094-2.187,1.487c-0.811,0.393-1.708,0.59-2.69,0.59c-0.869,0-1.594-0.14-2.176-0.418
		c-0.582-0.279-1.056-0.685-1.425-1.217s-0.639-1.18-0.811-1.941c-0.172-0.762-0.275-1.635-0.307-2.617
		c-0.017-0.409-0.042-0.897-0.074-1.463c-0.033-0.564-0.095-1.163-0.185-1.794c-0.09-0.63-0.217-1.281-0.381-1.953
		c-0.164-0.672-0.393-1.327-0.688-1.967c-0.295-0.639-0.664-1.244-1.106-1.818c-0.442-0.573-0.983-1.072-1.622-1.499
		c-1.262,0.427-2.568,0.758-3.92,0.995c-1.352,0.238-2.749,0.365-4.19,0.381v0.737c0,2.016-0.201,3.904-0.602,5.665
		c-0.401,1.762-1.053,3.293-1.954,4.596c-0.901,1.303-2.064,2.327-3.49,3.072s-3.162,1.118-5.21,1.118
		c-1.016,0-2.02-0.136-3.011-0.405c-0.991-0.271-1.917-0.644-2.777-1.118c-0.86-0.476-1.631-1.036-2.311-1.684
		s-1.216-1.348-1.609-2.102c-0.083-0.131-0.123-0.278-0.123-0.442c0-0.229,0.086-0.438,0.258-0.627
		c0.172-0.188,0.397-0.282,0.676-0.282c0.36,0,0.63,0.156,0.811,0.467c0.36,0.639,0.827,1.229,1.401,1.77
		c0.573,0.541,1.216,1.004,1.929,1.389c0.712,0.385,1.474,0.685,2.285,0.896c0.811,0.214,1.634,0.32,2.47,0.32
		c1.687,0,3.129-0.299,4.325-0.897c1.196-0.598,2.171-1.45,2.924-2.556c0.753-1.106,1.303-2.434,1.647-3.981
		c0.344-1.549,0.516-3.281,0.516-5.198v-0.958c-0.541-0.181-0.975-0.434-1.303-0.762c-0.328-0.328-0.492-0.729-0.492-1.204
		c0-0.476,0.156-0.894,0.467-1.254c0.311-0.36,0.753-0.655,1.327-0.885c0-0.377,0.008-0.749,0.024-1.118
		c0.016-0.368,0.041-0.732,0.074-1.094c0.098-1.18,0.283-2.236,0.553-3.17c0.271-0.934,0.59-1.753,0.958-2.458
		c0.369-0.704,0.75-1.302,1.143-1.794c0.393-0.491,0.762-0.896,1.106-1.216c0.344-0.32,0.63-0.554,0.86-0.701
		s0.36-0.229,0.394-0.245C32.076,90.501,32.215,90.468,32.379,90.468z M34.689,104.181c-0.279-0.081-0.549-0.163-0.811-0.245
		s-0.545-0.151-0.848-0.209c-0.303-0.058-0.639-0.106-1.008-0.147s-0.791-0.062-1.266-0.062c-0.852,0-1.548,0.049-2.089,0.147v0.024
		v1.18c0.999,0,2.027-0.057,3.084-0.172C32.81,104.583,33.789,104.412,34.689,104.181z"/>
	<path fill="#282661" d="M71.578,113.717c-0.065,0.131-0.2,0.405-0.405,0.823s-0.467,0.896-0.786,1.438s-0.692,1.105-1.118,1.695
		c-0.427,0.59-0.901,1.131-1.426,1.622c-0.524,0.492-1.09,0.897-1.695,1.217c-0.606,0.319-1.245,0.479-1.917,0.479
		c-0.95,0-1.749-0.304-2.396-0.909c-0.647-0.606-1.118-1.368-1.413-2.286c-0.557,0.935-1.221,1.676-1.99,2.225
		c-0.771,0.549-1.54,0.823-2.311,0.823c-0.606,0-1.155-0.11-1.646-0.332c-0.491-0.221-0.909-0.532-1.253-0.934
		c-0.345-0.401-0.611-0.873-0.799-1.413c-0.188-0.541-0.283-1.131-0.283-1.77c0-1.278,0.217-2.404,0.651-3.379
		s0.987-1.79,1.659-2.445s1.413-1.147,2.224-1.475c0.812-0.328,1.594-0.492,2.348-0.492c0.508,0,0.975,0.07,1.4,0.209
		c0.426,0.14,0.79,0.291,1.094,0.455c0.303,0.164,0.536,0.315,0.7,0.454c0.164,0.14,0.254,0.218,0.271,0.233
		c0.18,0.214,0.271,0.435,0.271,0.664c0,0.246-0.091,0.463-0.271,0.651c-0.181,0.188-0.394,0.282-0.639,0.282
		c-0.263,0-0.483-0.09-0.664-0.271c-0.033-0.032-0.106-0.094-0.221-0.184c-0.115-0.09-0.271-0.185-0.467-0.283
		c-0.197-0.098-0.431-0.185-0.701-0.258c-0.27-0.074-0.577-0.11-0.921-0.11c-0.509,0-1.049,0.114-1.622,0.344
		c-0.574,0.229-1.098,0.586-1.573,1.069s-0.872,1.09-1.191,1.818c-0.32,0.729-0.479,1.594-0.479,2.593
		c0,0.312,0.032,0.627,0.099,0.946c0.064,0.319,0.18,0.61,0.344,0.872c0.163,0.263,0.385,0.476,0.663,0.64
		c0.278,0.163,0.623,0.245,1.032,0.245c0.295,0,0.635-0.098,1.021-0.295c0.385-0.196,0.753-0.499,1.105-0.909
		c0.353-0.409,0.672-0.926,0.959-1.548c0.286-0.623,0.487-1.36,0.602-2.212c0.033-0.229,0.14-0.422,0.319-0.578
		c0.181-0.155,0.394-0.233,0.64-0.233c0.229,0,0.43,0.091,0.602,0.271c0.172,0.181,0.267,0.386,0.283,0.614
		c0.016,0.312,0.049,0.75,0.098,1.315c0.05,0.564,0.16,1.126,0.332,1.683c0.172,0.558,0.43,1.041,0.774,1.45
		c0.344,0.41,0.818,0.614,1.425,0.614c0.394,0,0.782-0.106,1.168-0.319c0.385-0.213,0.762-0.495,1.13-0.848
		c0.369-0.353,0.721-0.753,1.057-1.204c0.336-0.45,0.644-0.905,0.922-1.364c0.278-0.458,0.524-0.9,0.737-1.327
		c0.213-0.426,0.394-0.794,0.541-1.105c0.082-0.181,0.2-0.319,0.356-0.418c0.155-0.099,0.323-0.147,0.504-0.147
		c0.278,0,0.503,0.103,0.676,0.308c0.172,0.205,0.258,0.422,0.258,0.65C71.652,113.488,71.627,113.603,71.578,113.717z"/>
	<path fill="#282661" d="M71.75,121.434c0.605-0.655,1.229-1.348,1.867-2.077c0.64-0.729,1.254-1.458,1.844-2.187
		c0.59-0.729,1.131-1.45,1.622-2.163s0.876-1.389,1.155-2.027c0.147-0.36,0.426-0.541,0.835-0.541c0.278,0,0.504,0.095,0.676,0.283
		s0.259,0.397,0.259,0.626c0,0.132-0.025,0.255-0.074,0.369c-0.377,0.852-0.894,1.736-1.548,2.654
		c-0.656,0.917-1.364,1.831-2.126,2.74s-1.54,1.794-2.335,2.654c-0.795,0.859-1.52,1.658-2.175,2.396
		c0.016,1.311,0.037,2.597,0.062,3.858s0.037,2.458,0.037,3.588c0,4.506-0.442,7.849-1.327,10.027s-2.204,3.269-3.957,3.269
		c-0.606,0-1.163-0.131-1.671-0.394c-0.508-0.262-0.942-0.639-1.303-1.13c-0.36-0.492-0.643-1.098-0.848-1.818
		c-0.205-0.722-0.308-1.541-0.308-2.458c0-1.017,0.135-2.126,0.405-3.33s0.705-2.479,1.303-3.821
		c0.599-1.344,1.372-2.732,2.322-4.166s2.098-2.888,3.44-4.362c0-1.409,0.009-2.813,0.025-4.215c0.016-1.4,0.045-2.744,0.086-4.03
		c0.04-1.286,0.098-2.49,0.172-3.612c0.073-1.122,0.159-2.117,0.258-2.986c0.033-0.246,0.136-0.442,0.308-0.59
		s0.381-0.221,0.626-0.221c0.246,0,0.459,0.09,0.64,0.27c0.18,0.181,0.271,0.402,0.271,0.664c0,0.099-0.029,0.418-0.087,0.958
		c-0.058,0.541-0.118,1.336-0.184,2.384c-0.066,1.049-0.127,2.348-0.185,3.896C71.778,117.49,71.75,119.321,71.75,121.434z
		 M70.004,131.46c0-0.835-0.009-1.671-0.024-2.506c-0.017-0.836-0.033-1.745-0.049-2.729c-1.016,1.229-1.881,2.441-2.593,3.638
		c-0.713,1.195-1.299,2.343-1.758,3.44c-0.458,1.098-0.79,2.138-0.995,3.121c-0.204,0.983-0.307,1.876-0.307,2.679
		c0,0.458,0.032,0.922,0.098,1.389s0.185,0.893,0.356,1.277s0.405,0.696,0.7,0.935c0.295,0.237,0.672,0.356,1.131,0.356
		c0.181,0,0.394-0.041,0.639-0.123c0.246-0.082,0.496-0.258,0.75-0.528s0.504-0.66,0.749-1.168c0.246-0.508,0.467-1.191,0.664-2.052
		c0.196-0.86,0.352-1.921,0.467-3.183C69.947,134.746,70.004,133.23,70.004,131.46z M74.109,101.282
		c0,0.623-0.218,1.151-0.651,1.585c-0.435,0.435-0.963,0.651-1.585,0.651c-0.623,0-1.151-0.217-1.585-0.651
		c-0.435-0.434-0.651-0.962-0.651-1.585c0-0.312,0.057-0.603,0.172-0.872c0.114-0.271,0.274-0.508,0.479-0.713
		c0.204-0.205,0.442-0.364,0.712-0.479c0.271-0.114,0.562-0.172,0.873-0.172c0.311,0,0.602,0.058,0.872,0.172
		c0.271,0.115,0.508,0.274,0.713,0.479c0.204,0.205,0.364,0.442,0.479,0.713C74.051,100.679,74.109,100.97,74.109,101.282z
		 M72.708,101.282c0-0.229-0.082-0.43-0.245-0.603c-0.164-0.172-0.361-0.258-0.59-0.258c-0.229,0-0.431,0.086-0.603,0.258
		c-0.172,0.173-0.258,0.373-0.258,0.603s0.086,0.426,0.258,0.59s0.373,0.246,0.603,0.246c0.229,0,0.426-0.082,0.59-0.246
		C72.625,101.708,72.708,101.511,72.708,101.282z"/>
	<path fill="#282661" d="M97.234,113.717c-0.065,0.131-0.2,0.405-0.405,0.823s-0.467,0.896-0.786,1.438s-0.692,1.105-1.118,1.695
		c-0.427,0.59-0.901,1.131-1.426,1.622c-0.524,0.492-1.09,0.897-1.695,1.217c-0.606,0.319-1.245,0.479-1.917,0.479
		c-0.95,0-1.749-0.304-2.396-0.909c-0.647-0.606-1.118-1.368-1.413-2.286c-0.557,0.935-1.221,1.676-1.99,2.225
		c-0.771,0.549-1.54,0.823-2.311,0.823c-0.606,0-1.155-0.11-1.646-0.332c-0.491-0.221-0.909-0.532-1.253-0.934
		c-0.345-0.401-0.611-0.873-0.799-1.413c-0.188-0.541-0.283-1.131-0.283-1.77c0-1.278,0.217-2.404,0.651-3.379
		s0.987-1.79,1.659-2.445s1.413-1.147,2.224-1.475c0.812-0.328,1.594-0.492,2.348-0.492c0.508,0,0.975,0.07,1.4,0.209
		c0.426,0.14,0.79,0.291,1.094,0.455c0.303,0.164,0.536,0.315,0.7,0.454c0.164,0.14,0.254,0.218,0.271,0.233
		c0.18,0.214,0.271,0.435,0.271,0.664c0,0.246-0.091,0.463-0.271,0.651c-0.181,0.188-0.394,0.282-0.639,0.282
		c-0.263,0-0.483-0.09-0.664-0.271c-0.033-0.032-0.106-0.094-0.221-0.184c-0.115-0.09-0.271-0.185-0.467-0.283
		c-0.197-0.098-0.431-0.185-0.701-0.258c-0.27-0.074-0.577-0.11-0.921-0.11c-0.509,0-1.049,0.114-1.622,0.344
		c-0.574,0.229-1.098,0.586-1.573,1.069s-0.872,1.09-1.191,1.818c-0.32,0.729-0.479,1.594-0.479,2.593
		c0,0.312,0.032,0.627,0.099,0.946c0.064,0.319,0.18,0.61,0.344,0.872c0.163,0.263,0.385,0.476,0.663,0.64
		c0.278,0.163,0.623,0.245,1.032,0.245c0.295,0,0.635-0.098,1.021-0.295c0.385-0.196,0.753-0.499,1.105-0.909
		c0.353-0.409,0.672-0.926,0.959-1.548c0.286-0.623,0.487-1.36,0.602-2.212c0.033-0.229,0.14-0.422,0.319-0.578
		c0.181-0.155,0.394-0.233,0.64-0.233c0.229,0,0.43,0.091,0.602,0.271c0.172,0.181,0.267,0.386,0.283,0.614
		c0.016,0.312,0.049,0.75,0.098,1.315c0.05,0.564,0.16,1.126,0.332,1.683c0.172,0.558,0.43,1.041,0.774,1.45
		c0.344,0.41,0.818,0.614,1.425,0.614c0.394,0,0.782-0.106,1.168-0.319c0.385-0.213,0.762-0.495,1.13-0.848
		c0.369-0.353,0.721-0.753,1.057-1.204c0.336-0.45,0.644-0.905,0.922-1.364c0.278-0.458,0.524-0.9,0.737-1.327
		c0.213-0.426,0.394-0.794,0.541-1.105c0.082-0.181,0.2-0.319,0.356-0.418c0.155-0.099,0.323-0.147,0.504-0.147
		c0.278,0,0.503,0.103,0.676,0.308c0.172,0.205,0.258,0.422,0.258,0.65C97.308,113.488,97.284,113.603,97.234,113.717z"/>
	<path fill="#282661" d="M153.735,120.451c0.065,0.115,0.099,0.254,0.099,0.418c0,0.246-0.086,0.458-0.258,0.639
		c-0.173,0.181-0.397,0.271-0.677,0.271c-0.18,0-0.34-0.041-0.479-0.123c-0.14-0.082-0.25-0.205-0.332-0.368
		c-0.312-0.606-0.586-1.364-0.823-2.273s-0.442-1.921-0.614-3.035s-0.312-2.313-0.418-3.601c-0.106-1.286-0.192-2.617-0.258-3.993
		c-1.229,0.164-2.609,0.344-4.142,0.54c-1.532,0.197-3.28,0.427-5.247,0.688c-1.376,0.196-2.776,0.369-4.202,0.517
		c-3.506,3.817-7.196,6.713-11.071,8.688c-3.875,1.974-7.762,2.961-11.661,2.961c-1.737,0-3.24-0.168-4.51-0.504
		s-2.318-0.713-3.146-1.13c-0.827-0.418-1.45-0.808-1.868-1.168s-0.643-0.557-0.676-0.59c-0.163-0.163-0.246-0.376-0.246-0.639
		c0-0.262,0.091-0.483,0.271-0.664c0.181-0.18,0.394-0.27,0.64-0.27c0.278,0,0.508,0.098,0.688,0.295
		c0.033,0.032,0.229,0.2,0.59,0.504c0.36,0.303,0.897,0.626,1.61,0.971c0.712,0.344,1.617,0.655,2.715,0.934s2.4,0.418,3.908,0.418
		c2.064,0,4.038-0.278,5.923-0.836c1.884-0.557,3.665-1.281,5.345-2.175c1.68-0.893,3.244-1.913,4.694-3.06s2.765-2.311,3.944-3.49
		c-1.164,0.099-2.318,0.172-3.465,0.222c-1.147,0.049-2.278,0.073-3.392,0.073c-2.196,0-4.285-0.123-6.268-0.368
		c-1.982-0.246-3.728-0.659-5.234-1.241c-1.508-0.581-2.707-1.355-3.601-2.322c-0.893-0.967-1.339-2.171-1.339-3.613
		c0-0.654,0.135-1.311,0.405-1.966s0.594-1.249,0.971-1.781s0.77-0.967,1.18-1.303c0.409-0.336,0.762-0.504,1.057-0.504
		c0.229,0,0.442,0.082,0.639,0.246c0.197,0.163,0.295,0.385,0.295,0.663c0,0.147-0.032,0.291-0.098,0.43
		c-0.065,0.14-0.164,0.25-0.295,0.332c-0.033,0.033-0.172,0.147-0.418,0.344c-0.246,0.197-0.508,0.464-0.786,0.799
		c-0.279,0.336-0.533,0.737-0.762,1.204c-0.23,0.468-0.345,0.972-0.345,1.512c0,0.934,0.323,1.758,0.971,2.47
		c0.647,0.713,1.589,1.312,2.826,1.794c1.237,0.483,2.757,0.849,4.56,1.094c1.802,0.246,3.858,0.369,6.168,0.369
		c1.327,0,2.729-0.041,4.203-0.123c1.474-0.082,3.03-0.205,4.669-0.369c0.786-0.868,1.482-1.687,2.089-2.457
		c0.606-0.77,1.122-1.458,1.549-2.064c0.704-0.999,1.441-2.064,2.211-3.195c0.771-1.13,1.536-2.276,2.298-3.44
		c0.763-1.163,1.508-2.313,2.237-3.453c0.729-1.138,1.413-2.211,2.052-3.219s1.212-1.925,1.72-2.753
		c0.508-0.827,0.926-1.511,1.254-2.052c0.099-0.442,0.246-0.848,0.442-1.217c0.196-0.368,0.516-0.553,0.958-0.553
		c0.246,0,0.483,0.103,0.713,0.307c0.229,0.205,0.344,0.464,0.344,0.774c0,0.229-0.082,0.476-0.245,0.737
		c-0.164,0.263-0.319,0.483-0.467,0.664c-0.05,0.312-0.127,0.975-0.233,1.99c-0.107,1.017-0.214,2.257-0.32,3.724
		c-0.106,1.466-0.196,3.08-0.27,4.841c-0.074,1.762-0.111,3.544-0.111,5.346c0,0.672,0,1.335,0,1.99c0,0.656,0.017,1.319,0.05,1.991
		c2.457-0.312,4.251-0.528,5.382-0.651s1.729-0.185,1.794-0.185c0.213,0,0.422,0.086,0.627,0.258
		c0.204,0.172,0.307,0.397,0.307,0.676c0,0.23-0.077,0.431-0.233,0.603c-0.155,0.172-0.356,0.274-0.602,0.308
		c-0.295,0.032-0.64,0.073-1.032,0.122c-0.394,0.05-0.877,0.107-1.45,0.173s-1.245,0.144-2.016,0.233
		c-0.77,0.09-1.671,0.2-2.703,0.331c0.05,1.344,0.127,2.634,0.233,3.871s0.237,2.388,0.394,3.453
		c0.155,1.064,0.34,2.023,0.553,2.875C153.21,119.214,153.457,119.911,153.735,120.451z M140.341,107.77
		c1.933-0.263,3.69-0.496,5.271-0.701c1.581-0.204,3.011-0.389,4.288-0.553c-0.017-0.704-0.028-1.408-0.036-2.113
		c-0.009-0.704-0.013-1.417-0.013-2.138c0-2.311,0.041-4.519,0.123-6.624c0.082-2.104,0.196-3.936,0.344-5.492
		c-0.655,1.032-1.381,2.175-2.175,3.428c-0.795,1.254-1.618,2.532-2.47,3.834c-0.853,1.303-1.713,2.593-2.581,3.871
		s-1.695,2.474-2.481,3.588c-0.394,0.558-0.795,1.098-1.204,1.622c-0.41,0.524-0.82,1.041-1.229,1.548
		c0.36-0.032,0.717-0.073,1.069-0.122C139.6,107.868,139.964,107.819,140.341,107.77z"/>
	<path fill="#282661" d="M164.352,110.473c-0.066,0.442-0.147,0.856-0.246,1.241s-0.192,0.721-0.282,1.008
		c-0.091,0.286-0.169,0.52-0.233,0.7c-0.066,0.181-0.107,0.278-0.123,0.295c-0.164,0.377-0.451,0.565-0.86,0.565
		c-0.229,0-0.442-0.087-0.639-0.259c-0.197-0.172-0.295-0.389-0.295-0.651c0-0.098,0.016-0.172,0.049-0.221
		c0.032-0.049,0.082-0.147,0.147-0.295s0.147-0.394,0.246-0.737c0.098-0.344,0.221-0.876,0.368-1.598
		c-0.278,0-0.565-0.008-0.86-0.024c-0.295-0.016-0.569-0.073-0.823-0.172s-0.463-0.254-0.626-0.467
		c-0.164-0.213-0.246-0.508-0.246-0.885c0-0.278,0.078-0.655,0.233-1.131c0.156-0.475,0.364-0.941,0.627-1.4
		c0.262-0.459,0.557-0.856,0.885-1.192c0.327-0.335,0.654-0.504,0.982-0.504c0.377,0,0.685,0.14,0.922,0.418
		c0.237,0.279,0.422,0.619,0.553,1.02c0.131,0.402,0.226,0.824,0.283,1.267c0.057,0.441,0.086,0.827,0.086,1.154
		c0.278,0,0.553-0.004,0.823-0.012c0.271-0.009,0.528-0.013,0.773-0.013c0.935,0,1.647,0.205,2.139,0.614
		c0.491,0.41,0.737,1.082,0.737,2.016c0,0.377-0.024,0.771-0.074,1.18c-0.049,0.409-0.106,0.832-0.172,1.266
		c-0.065,0.435-0.123,0.864-0.172,1.29c-0.049,0.427-0.073,0.844-0.073,1.254c0,0.589,0.081,1.077,0.245,1.462
		s0.369,0.692,0.614,0.922c0.246,0.229,0.508,0.389,0.787,0.479c0.278,0.091,0.532,0.136,0.762,0.136
		c0.704,0,1.367-0.229,1.99-0.688c0.623-0.458,1.196-1.012,1.721-1.659c0.524-0.646,0.995-1.33,1.413-2.052
		c0.418-0.721,0.766-1.352,1.044-1.893c0.082-0.147,0.197-0.262,0.345-0.344s0.303-0.123,0.467-0.123
		c0.295,0,0.524,0.095,0.688,0.283c0.164,0.188,0.246,0.397,0.246,0.626c0,0.164-0.033,0.312-0.099,0.442
		c-0.377,0.672-0.814,1.43-1.314,2.273s-1.069,1.635-1.708,2.372s-1.355,1.359-2.15,1.867s-1.667,0.762-2.617,0.762
		c-0.59,0-1.147-0.11-1.671-0.331c-0.524-0.222-0.979-0.541-1.364-0.959s-0.692-0.934-0.922-1.548s-0.344-1.307-0.344-2.077
		c0-0.819,0.082-1.634,0.246-2.445c0.163-0.811,0.245-1.585,0.245-2.322c0-0.311-0.069-0.545-0.209-0.7
		c-0.139-0.155-0.446-0.233-0.921-0.233c-0.23,0-0.479,0-0.75,0S164.663,110.457,164.352,110.473z M162.706,108.655
		c0-0.115-0.005-0.267-0.013-0.455c-0.009-0.188-0.024-0.372-0.049-0.553s-0.058-0.336-0.099-0.467s-0.086-0.197-0.135-0.197
		c-0.05,0-0.111,0.062-0.185,0.185c-0.074,0.123-0.151,0.271-0.233,0.442s-0.156,0.356-0.222,0.553
		c-0.065,0.197-0.114,0.361-0.147,0.492H162.706z"/>
</g>
</svg>
