<?xml version="1.0" encoding="utf-8"?>
<!-- Generator: Adobe Illustrator 16.0.3, SVG Export Plug-In . SVG Version: 6.00 Build 0)  -->
<!DOCTYPE svg PUBLIC "-//W3C//DTD SVG 1.1//EN" "http://www.w3.org/Graphics/SVG/1.1/DTD/svg11.dtd">
<svg version="1.1" id="Layer_1" xmlns="http://www.w3.org/2000/svg" xmlns:xlink="http://www.w3.org/1999/xlink" x="0px" y="0px"
	 width="185.765px" height="149.822px" viewBox="0 0 185.765 149.822" enable-background="new 0 0 185.765 149.822"
	 xml:space="preserve">
<path fill="#DB354D" d="M89.546,22.865c0,0,11.51-0.905,11.51,9.256c0,4.849-0.073,31.588-0.073,31.588s-0.417,10.383-11.24,11.853
	l0.099,5.436c0,0,15.818,0.637,16.847-19.001l-0.05-29.141c0,0,0.838-15.574-17.188-15.574L89.546,22.865z"/>
<g>
	<g>
		<path fill="none" stroke="#DB354D" stroke-width="1.5" stroke-linecap="round" stroke-miterlimit="10" d="M76.009,43.83
			l-0.49-3.145c0,0-0.064-1.344,1.681-1.254l7.34-0.004c0,0,1.61,0.003,1.382,1.615l-0.852,3.395c0,0-0.815,1.261-1.81,1.172
			l-5.93,0.004C77.332,45.613,76.212,45.141,76.009,43.83z"/>
		<path fill="none" stroke="#DB354D" stroke-width="1.5" stroke-linecap="round" stroke-miterlimit="10" d="M98.066,43.601
			l0.49-3.145c0,0,0.063-1.344-1.681-1.254l-7.34-0.005c0,0-1.612,0.005-1.383,1.616l0.852,3.396c0,0,0.815,1.261,1.809,1.17
			l5.931,0.005C96.744,45.384,97.862,44.914,98.066,43.601z"/>
		
			<line fill="none" stroke="#DB354D" stroke-width="1.5" stroke-linecap="round" stroke-miterlimit="10" x1="85.921" y1="41.042" x2="88.153" y2="40.814"/>
		
			<line fill="none" stroke="#DB354D" stroke-width="1.5" stroke-linecap="round" stroke-miterlimit="10" x1="75.953" y1="39.744" x2="74.376" y2="39.744"/>
	</g>
	
		<line fill="none" stroke="#DB354D" stroke-width="1.5" stroke-linecap="round" stroke-miterlimit="10" x1="99.077" y1="39.744" x2="100.507" y2="39.744"/>
</g>
<path fill="#DB354D" d="M85.349,17.282c-16.971,0.809-17.19,17.631-17.19,17.631v28.797h5.681V34.913
	c0-11.666,11.607-12.048,11.607-12.048L85.349,17.282z"/>
<text transform="matrix(1 0 0 1 1.6846 120.5737)" fill="#282661" font-family="'Sacramento-Regular'" font-size="50.3314">Raja Ar</text>
</svg>
