<?xml version="1.0" encoding="utf-8"?>
<!-- Generator: Adobe Illustrator 16.0.3, SVG Export Plug-In . SVG Version: 6.00 Build 0)  -->
<!DOCTYPE svg PUBLIC "-//W3C//DTD SVG 1.1//EN" "http://www.w3.org/Graphics/SVG/1.1/DTD/svg11.dtd">
<svg version="1.1" id="Layer_1" xmlns="http://www.w3.org/2000/svg" xmlns:xlink="http://www.w3.org/1999/xlink" x="0px" y="0px"
	 width="128.114px" height="60.498px" viewBox="0 0 128.114 60.498" enable-background="new 0 0 128.114 60.498"
	 xml:space="preserve">
<path fill="#282661" d="M41.904,49.868h-3.948v-1.927c-2.303,1.675-4.81,2.515-7.52,2.515c-2.178,0-3.894-0.596-5.147-1.786
	c-1.253-1.192-1.88-2.891-1.88-5.1c0-1.191,0.262-2.245,0.787-3.161c0.525-0.916,1.332-1.728,2.421-2.433
	c1.088-0.705,2.588-1.362,4.5-1.974l6.839-2.21v-1.386c0-1.691-0.411-2.872-1.233-3.537c-0.823-0.666-2.198-0.999-4.125-0.999
	c-2.288,0-4.849,0.642-7.684,1.928l0.963-4.419c2.083-0.675,4.309-1.01,6.675-1.01c3.446,0,5.867,0.673,7.261,2.021
	c1.395,1.347,2.092,3.353,2.092,6.017V49.868z M37.956,44.769v-7.802c-3.87,1.283-6.227,2.095-7.073,2.432
	c-0.846,0.336-1.614,0.846-2.304,1.527c-0.689,0.682-1.034,1.563-1.034,2.645c0,1.253,0.309,2.188,0.929,2.808
	c0.619,0.619,1.547,0.929,2.785,0.929C33.467,47.307,35.7,46.46,37.956,44.769z"/>
<path fill="#282661" d="M52.761,45.061c0,2.867-0.561,5.268-1.68,7.203c-1.121,1.935-3.013,4.062-5.675,6.381l-2.75-1.974
	c2.303-1.961,3.916-3.771,4.841-5.44c0.924-1.67,1.387-3.71,1.387-6.123V23.934h3.877V45.061z M50.811,9.23
	c0.658,0,1.222,0.227,1.692,0.681s0.705,1.003,0.705,1.646s-0.232,1.179-0.693,1.61c-0.462,0.43-1.031,0.646-1.704,0.646
	s-1.238-0.216-1.692-0.646c-0.455-0.432-0.682-0.968-0.682-1.61c0-0.658,0.227-1.211,0.682-1.657
	C49.573,9.453,50.137,9.23,50.811,9.23z"/>
<path fill="#282661" d="M77.038,49.868H73.09v-1.927c-2.304,1.675-4.81,2.515-7.521,2.515c-2.178,0-3.894-0.596-5.146-1.786
	c-1.254-1.192-1.88-2.891-1.88-5.1c0-1.191,0.262-2.245,0.788-3.161c0.524-0.916,1.331-1.728,2.42-2.433
	c1.088-0.705,2.589-1.362,4.5-1.974l6.839-2.21v-1.386c0-1.691-0.412-2.872-1.234-3.537c-0.822-0.666-2.197-0.999-4.124-0.999
	c-2.288,0-4.85,0.642-7.685,1.928l0.964-4.419c2.083-0.675,4.309-1.01,6.674-1.01c3.446,0,5.867,0.673,7.262,2.021
	c1.394,1.347,2.092,3.353,2.092,6.017V49.868z M73.09,44.769v-7.802c-3.87,1.283-6.228,2.095-7.074,2.432
	c-0.846,0.336-1.614,0.846-2.303,1.527c-0.69,0.682-1.034,1.563-1.034,2.645c0,1.253,0.309,2.188,0.928,2.808
	c0.619,0.619,1.547,0.929,2.785,0.929C68.601,47.307,70.833,46.46,73.09,44.769z"/>
<path fill="#282661" d="M125.341,27.56c-0.359-0.032-0.971-0.047-1.832-0.047c-1.756,0-3.236,0.301-4.442,0.904
	c-1.207,0.604-2.335,1.508-3.384,2.714v18.237h-3.948V24.434h3.948v2.891c0.924-1.145,1.986-2.006,3.185-2.585
	c1.198-0.58,2.542-0.869,4.03-0.869c0.689,0,1.441,0.047,2.256,0.141L125.341,27.56z"/>
<path fill="#282661" stroke="#282661" stroke-miterlimit="10" d="M11.594,26.246l-0.568,29.201c0,0-0.155,0.25-3.53,0.25
	L7.43,29.339c0,0,0.191-18.467,23.066-20.693V4.697c-24.606,1.131-26.875,23-26.875,23l-0.625,30.75c10.936,0,12,0,12,0l0.125-28.25
	c0-13.67,15.375-13.875,15.375-13.875v-3.756C29.865,12.57,15.451,12.799,11.594,26.246z"/>
<polygon fill="#282661" points="33.371,16.446 33.371,4.386 43.641,10.842 "/>
<polygon fill="#6B03FF" stroke="#FFFFFF" stroke-width="0.5" stroke-miterlimit="10" points="39.163,13.28 39.163,7.947 
	43.641,10.842 "/>
<path fill="#282661" d="M107.038,49.868h-3.948v-1.927c-2.304,1.675-4.81,2.515-7.521,2.515c-2.178,0-3.894-0.596-5.146-1.786
	c-1.254-1.192-1.88-2.891-1.88-5.1c0-1.191,0.262-2.245,0.788-3.161c0.524-0.916,1.331-1.728,2.42-2.433
	c1.088-0.705,2.589-1.362,4.5-1.974l6.839-2.21v-1.386c0-1.691-0.412-2.872-1.234-3.537c-0.822-0.666-2.197-0.999-4.124-0.999
	c-2.288,0-4.85,0.642-7.685,1.928l0.964-4.419c2.083-0.675,4.309-1.01,6.674-1.01c3.446,0,5.867,0.673,7.262,2.021
	c1.394,1.347,2.092,3.353,2.092,6.017V49.868z M103.09,44.769v-7.802c-3.87,1.283-6.228,2.095-7.074,2.432
	c-0.846,0.336-1.614,0.846-2.303,1.527c-0.69,0.682-1.034,1.563-1.034,2.645c0,1.253,0.309,2.188,0.928,2.808
	c0.619,0.619,1.547,0.929,2.785,0.929C98.601,47.307,100.833,46.46,103.09,44.769z"/>
<circle fill="#6B03FF" cx="50.434" cy="10.76" r="3.188"/>
<rect id="_x3C_Slice_x3E_" x="-4.879" y="0.614" fill="none" width="140" height="61.666"/>
</svg>
