<?xml version="1.0" encoding="utf-8"?>
<!-- Generator: Adobe Illustrator 16.0.3, SVG Export Plug-In . SVG Version: 6.00 Build 0)  -->
<!DOCTYPE svg PUBLIC "-//W3C//DTD SVG 1.1//EN" "http://www.w3.org/Graphics/SVG/1.1/DTD/svg11.dtd">
<svg version="1.1" id="Layer_1" xmlns="http://www.w3.org/2000/svg" xmlns:xlink="http://www.w3.org/1999/xlink" x="0px" y="0px"
	 width="2500px" height="2500px" viewBox="0 0 2500 2500" enable-background="new 0 0 2500 2500" xml:space="preserve">
<g>
	<path fill="#FFFFFF" d="M0,0h2500v2500H0V0z"/>
	<path fill="#2C4A7C" d="M2079.441,1212.765c-55.836,52.906-173.401,99.935-229.236,120.51
		c-79.375,29.4-114.652,41.153-158.734,55.837c-49.942,14.699-149.894,47.029-149.894,47.029
		c205.746,61.712,352.727,79.357,352.727,79.357s67.606-20.56,176.331-79.357c58.783-29.399,85.251-47.029,105.795-67.605
		c8.807-5.878,29.398-26.453,32.346-52.907c0-2.929,2.93-5.876,2.93-11.769v-5.878c-2.93-2.929-2.93-5.876-2.93-5.876
		s0-5.876-2.963-11.753c0-2.946-5.86-17.63-17.631-26.453c-8.806-5.893-20.575-20.576-64.676-35.275
		c-14.698-5.894-41.135-11.77-41.135-11.77L2079.441,1212.765z"/>
	<path fill="#C82E37" d="M2211.705,1300.947c0,0,0-5.878-2.931-8.823c0-5.876-2.963-8.823-5.894-14.699
		c-5.484-5.364-10.409-11.271-14.698-17.631c-5.895-2.946-11.771-8.823-17.631-14.699c-29.4-17.646-64.676-26.453-97.021-32.33
		c-49.942-5.876-108.726-5.876-114.618-5.876c-17.63,0-138.125,0-167.508,2.93c-135.193,2.947-302.751,2.947-346.834,2.947
		c-449.682,0-646.589-8.823-864.088-52.906c-185.17-35.276-288.036-70.536-288.036-70.536
		c164.594-5.876,1119.795-47.029,1293.196-49.958c114.65-2.931,193.976-5.876,258.651,0c35.276,0,64.676,2.945,102.882,11.769
		c35.243,5.878,67.605,14.701,85.219,20.577c38.206,14.7,73.481,35.275,88.182,58.782c0,0,5.894,2.947,11.736,11.754
		c5.894,11.769,14.699,23.522,17.664,26.452c23.505,38.206,35.242,58.782,38.206,67.605c5.893,8.823,8.806,17.647,11.769,26.454
		c5.86,5.876,5.86,11.752,5.86,14.683c2.963,8.823,2.963,17.646,5.894,20.576V1300.947L2211.705,1300.947z"/>
</g>
</svg>
