<?xml version="1.0" encoding="utf-8"?>
<!-- Generator: Adobe Illustrator 16.0.3, SVG Export Plug-In . SVG Version: 6.00 Build 0)  -->
<!DOCTYPE svg PUBLIC "-//W3C//DTD SVG 1.1//EN" "http://www.w3.org/Graphics/SVG/1.1/DTD/svg11.dtd">
<svg version="1.1" id="Layer_1" xmlns="http://www.w3.org/2000/svg" xmlns:xlink="http://www.w3.org/1999/xlink" x="0px" y="0px"
	 width="2500px" height="2500px" viewBox="0 0 2500 2500" enable-background="new 0 0 2500 2500" xml:space="preserve">
<g>
	<path fill="#FFFFFF" d="M0,0h2500v2500H0V0z"/>
</g>
<path fill="#CA3132" d="M664.151,1375.176c161.411-204.94,358.357-307.453,588.123-307.453
	c229.768,0,426.748,102.47,585.406,307.453l5.471,3.324h235.269l-8.222-16.545c-92.985-158.672-213.356-284.297-361.076-376.832
	c-145-92.578-295.469-135.518-456.848-135.518c-158.659,0-311.846,42.98-456.848,135.518
	c-144.967,92.535-268.088,218.16-361.076,376.832l-8.222,16.545h235.271L664.151,1375.176L664.151,1375.176z"/>
</svg>
