<?xml version="1.0" encoding="utf-8"?>
<!-- Generator: Adobe Illustrator 16.0.3, SVG Export Plug-In . SVG Version: 6.00 Build 0)  -->
<!DOCTYPE svg PUBLIC "-//W3C//DTD SVG 1.1//EN" "http://www.w3.org/Graphics/SVG/1.1/DTD/svg11.dtd">
<svg version="1.1" id="Layer_1" xmlns="http://www.w3.org/2000/svg" xmlns:xlink="http://www.w3.org/1999/xlink" x="0px" y="0px"
	 width="2500px" height="2500px" viewBox="0 0 2500 2500" enable-background="new 0 0 2500 2500" xml:space="preserve">
<g>
	<path fill="#FFFFFF" d="M0,0h2500v2500H0V0z"/>
</g>
<path fill="#0E7DC2" d="M1207.54,1731.155c-335.796,30.978-685.792-17.814-734.814-280.241
	c-23.981-129.367,35.032-266.549,113.212-351.815v-45.531c-140.833,123.515-217.158,279.799-173.195,464.416
	c56.155,236.792,356.459,370.886,814.959,326.357c181.483-17.589,418.828-75.939,583.943-166.636v-128.744
	C1661.79,1638.249,1413.984,1712.004,1207.54,1731.155L1207.54,1731.155z M2092.141,1050.492
	C2012.49,661.619,1257.443,636.966,770.725,933.24v32.723c486.16-249.94,1175.751-248.421,1238.537,109.802
	c21.069,118.499-45.684,241.953-164.934,313.039v92.948C1987.778,1429.135,2134.921,1258.949,2092.141,1050.492L2092.141,1050.492z"
	/>
<path fill="#0E7DC2" d="M1784.496,993.865h-88.043v392.128c0,45.955,22.215,85.919,88.043,92.304V993.865z M736.155,1137.038
	h-88.204l-0.048,256.191c0,46.115,22.287,86.038,88.252,92.303V1137.038L736.155,1137.038z M647.951,1005.793h87.93v83.458h-87.93
	V1005.793z M1263.43,1481.475c-71.264,0-101.421-49.532-101.421-98.321v-340.162h87.277v94.046h65.729v70.494h-65.729v170.23
	c0,19.894,9.446,30.978,30.189,30.978h35.54v72.738L1263.43,1481.475 M1424.03,1336.553c0,44.666,27.928,77.491,77.348,77.491
	c38.723,0,57.808-10.746,80.16-32.825l53.93,51.374c-34.575,34.158-70.801,54.927-134.734,54.927
	c-83.523,0-163.55-45.586-163.55-178.483c0-113.615,69.927-177.837,161.613-177.837c93.205,0,146.768,75.184,146.768,173.876v31.487
	H1424.03 M1494.971,1203.382c-29.874,0-52.825,15.386-62.555,36.139c-5.666,12.475-7.742,22.194-8.391,37.523h134.509
	C1556.833,1239.521,1539.823,1203.382,1494.971,1203.382z M973.2,1207.532c25.592,0,36.232,12.653,36.232,33.188v241.264h87.297
	v-241.771c0-48.989-26.102-103.083-102.76-103.083l-180.326-0.093v344.947h87.331v-274.453H973.2L973.2,1207.532z
	 M1879.226,1063.933c-19.408,0-34.897-15.652-34.897-35.036c0-19.291,15.489-35.032,34.897-35.032
	c19.313,0,35.169,15.741,35.169,35.032C1914.395,1048.281,1898.535,1063.933,1879.226,1063.933L1879.226,1063.933z
	 M1879.226,999.707c-15.995,0-28.859,13.22-28.859,29.19c0,16.063,12.864,29.051,28.859,29.051
	c15.991,0,29.271-12.987,29.271-29.051C1908.494,1012.927,1895.221,999.707,1879.226,999.707z M1894.758,1049.896h-6.546
	c-0.576-0.008-1.096-0.349-1.331-0.875l-8.854-15.052c-0.277-0.322-1.015-0.689-1.241-0.689h-4.055v15.004
	c0,0.739-0.511,1.614-1.474,1.614h-5.904c-0.88,0-1.474-0.875-1.474-1.614v-37.846c0-2.214,0.736-3.124,2.673-3.401
	c2.121-0.23,7.652-0.507,10.746-0.507c10.923,0,17.334,3.216,17.334,13.346v0.739c0,6.256-3.088,9.667-7.882,11.188l9.219,15.696
	c0.151,0.351,0.229,0.728,0.23,1.11C1896.187,1049.203,1895.867,1049.896,1894.758,1049.896L1894.758,1049.896z M1886.28,1019.875
	c0-4.228-2.629-5.564-8.256-5.564h-5.576v12.005c0.877,0,4.842,0.185,5.576,0.185c5.627,0,8.256-1.876,8.256-5.887V1019.875z"/>
</svg>
