<?xml version="1.0" encoding="utf-8"?>
<!-- Generator: Adobe Illustrator 16.0.3, SVG Export Plug-In . SVG Version: 6.00 Build 0)  -->
<!DOCTYPE svg PUBLIC "-//W3C//DTD SVG 1.1//EN" "http://www.w3.org/Graphics/SVG/1.1/DTD/svg11.dtd">
<svg version="1.1" id="Layer_1" xmlns="http://www.w3.org/2000/svg" xmlns:xlink="http://www.w3.org/1999/xlink" x="0px" y="0px"
	 width="2500px" height="2500px" viewBox="0 0 2500 2500" enable-background="new 0 0 2500 2500" xml:space="preserve">
<g>
	<path fill="#FFFFFF" d="M0-1h2500v2500H0V-1z"/>
	<path fill="#27824D" d="M765.462,1431.741c-25.198,33.164-51.047,65.828-77.533,97.974l473.89-0.96
		c-2.789,62.955,12.035,139.697-17.289,193.717c-29.468,59.245-98.635,88.661-162.576,89.932
		c-191.097-17.703-318.188-184.56-390.869-342.44c-5.469-12.537-10.431-25.287-14.877-38.222
		c-65.367-189.554-30.103-432.685,94.434-587.868c185.065-243.974,511.852-342.531,816.329-249.058
		c185.701,57.819,350.846,201.33,432.387,383.958c58.844,137.907,60.62,304.141,12.813,452.981
		c-30.673,95.38-81.696,183.613-151.176,252.664c-85.82,72.216-178.334,148.322-297.475,124.536
		c-65.004-15.123-111.682-60.089-127.998-121.086c-13.955-53.124-10.492-104.108-3.45-159.113l483.552-0.83l-13.125-16.459
		c-22.425-26.238-44.45-52.817-66.068-79.725c-213.093-265.374-383.567-559.619-501.229-868.054
		C1131.677,868.724,964.056,1170.53,765.462,1431.741L765.462,1431.741z M388.237,1431.741
		c75.276,282.339,303.985,513.81,586.791,595.104c356.137,111.916,759.017-7.367,989.282-280.173
		c74.122-89.88,127.544-198.956,157.154-314.932c49.727-194.754,32.269-408.976-67.235-584.431
		c-71.178-123.797-175.805-240.511-293.998-314.776c-265.647-174.716-659.876-188.554-937.403-41.503
		C538.401,636.188,342.156,939.643,362.777,1269.32C365.513,1324.207,374.047,1378.65,388.237,1431.741L388.237,1431.741z"/>
</g>
</svg>
