<?xml version="1.0" encoding="utf-8"?>
<!-- Generator: Adobe Illustrator 16.0.3, SVG Export Plug-In . SVG Version: 6.00 Build 0)  -->
<!DOCTYPE svg PUBLIC "-//W3C//DTD SVG 1.1//EN" "http://www.w3.org/Graphics/SVG/1.1/DTD/svg11.dtd">
<svg version="1.1"
	 id="Laag_1" text-rendering="geometricPrecision" image-rendering="optimizeQuality" shape-rendering="geometricPrecision"
	 xmlns="http://www.w3.org/2000/svg" xmlns:xlink="http://www.w3.org/1999/xlink" x="0px" y="0px" width="300px" height="300px"
	 viewBox="0 0 300 300" enable-background="new 0 0 300 300" xml:space="preserve">
<rect x="0" y="1.5" fill="#FFFFFF" width="301.5" height="301"/>
<path fill="#A4D09F" d="M153.223,113.593c0.5,0.032,5.851,2.472,6.821,2.879l6.759,2.973c0.721,0.375,1.408,0.657,2.253,1.001
	l6.853,3.036c1.534,0.688,3.004,1.376,4.602,2.034c1.563,0.657,2.939,1.345,4.504,1.971l9.107,4.037
	c0.844,0.375,0.563,0.438,2.157-0.533c3.975-2.409,5.007-2.565,9.075-5.757l2.565-2.378c0.188-0.188,0.188-0.188,0.346-0.407
	c4.661-5.57,6.227-9.794,6.227-17.836c0-4.162-1.533-7.979-3.035-10.702c-0.845-1.533-1.846-2.722-2.941-4.005
	c-1.69-2.002-3.317-3.348-5.508-4.818c-1.407-0.939-1.157-1.314-4.411,0.876l-41.212,24.845c-0.75,0.438-1.408,0.846-2.129,1.283
	C154.223,112.686,153.409,112.936,153.223,113.593L153.223,113.593z M135.793,179.369c-0.157-0.127,0-0.032-0.25-0.22
	c-1.033-0.813-1.315-0.626-2.755-2.034c-0.03-0.032-0.063-0.063-0.063-0.063c-0.031-0.031-0.062-0.063-0.062-0.094
	c-0.188-0.219-0.314-0.343-0.501-0.595c-0.345-0.47-0.594-0.938-0.751-1.563c-0.907-3.568,6.509-6.947,9.388-8.637
	c1.096-0.656,5.258-2.88,5.664-3.442l-13.017-5.663c-0.938-0.439-1.784-0.721-2.659-1.19c-0.877-0.438-1.691-0.689-2.566-1.127
	l-13.08-5.757c-2.503-1.221-6.697-2.817-9.107-4.005c-0.219-0.095-0.406-0.22-0.656-0.314c-0.501-0.188-0.564-0.125-0.688,0
	c-0.721,1.252-2.38,2.348-3.287,5.884c-0.625,2.502-0.658,5.632,0.063,8.072c1.251,4.444,5.195,7.512,8.949,9.419
	c5.102,2.566,13.299,6.165,18.9,8.543C131.225,177.364,133.885,178.805,135.793,179.369L135.793,179.369z"/>
<path fill="#77ADD2" d="M104.156,78.108c-0.343,0.939-1.063,1.941-1.533,3.066c-1.565,3.693-1.659,8.167-0.156,11.767
	c1.689,4.005,5.853,6.853,9.982,8.824c4.194,2.002,8.699,3.974,13.017,5.82c2.19,0.938,4.288,1.939,6.541,2.878
	c1.502,0.626,5.288,2.566,6.602,2.817c-0.688-0.908-7.04-2.941-5.694-7.228c0.877-2.817,4.538-4.6,7.229-6.228l21.497-13.362
	c10.64-8.48,13.549-22.749,5.538-34.139c-0.219-0.313-0.47-0.626-0.719-0.97l-1.878-2.127c-0.032-0.032-0.063-0.063-0.094-0.063
	l-1.283-1.189c-0.314-0.313-0.595-0.469-0.938-0.751l-2.91-2.034c-0.907-0.563-0.627-0.344-2.066,0.532l-3.191,1.91
	c-2.221,1.188-7.729,4.756-10.357,6.32L104.156,78.108z M80.562,228.591c0,3.597,1.283,7.539,2.536,9.981
	c5.883,11.704,19.462,17.93,31.259,13.174c0.502-0.187,0.877-0.375,1.439-0.563c1.535-0.532,3.882-1.878,5.352-2.692l25.723-16.239
	c0.469-0.283,0.813-0.596,1.282-0.72l-2.597-1.409c-0.814-0.344-1.626-0.751-2.566-1.157c-6.415-2.661-14.113-6.539-20.465-9.138
	c-0.844-0.345-1.689-0.751-2.534-1.156l-7.667-3.443c-0.75-0.313-4.818-2.221-5.193-2.221c-0.438,0-14.489,8.449-16.553,9.7
	l-8.23,4.912C81.845,227.902,81.063,228.434,80.562,228.591L80.562,228.591z M196.967,199.27c0.376-0.595,0.722-0.751,1.159-1.22
	c2.973-3.35,3.88-7.792,2.597-12.172c-2.439-8.356-13.769-11.673-21.56-15.178c-2.128-0.938-4.257-1.877-6.448-2.815
	c-0.468-0.22-5.787-2.785-6.256-2.536c1.783,0.91,3.816,2.536,3.504,4.883c-0.25,1.939-2.597,3.88-3.975,4.693l-10.295,5.914
	c-0.469,0.251-0.344,0-0.499,0.564l10.388,4.567c1.784,0.845,3.474,1.47,5.258,2.314l25.472,11.297
	C197.094,199.645,196.873,199.552,196.967,199.27L196.967,199.27z"/>
<g>
	<path fill="#0071A9" d="M166.49,165.318c0.47-0.25,5.79,2.347,6.259,2.535c2.158,0.938,4.318,1.877,6.445,2.814
		c7.792,3.506,19.09,6.823,21.56,15.177c1.283,4.381,0.376,8.825-2.597,12.173c-0.438,0.501-0.813,0.627-1.156,1.222
		c0.688-0.157,2.972-1.66,3.66-2.127c5.57-3.756,9.669-6.635,13.049-12.894c4.725-8.792,4.693-21.748-0.345-30.259
		c-0.406-0.689-0.626-1.064-1.063-1.722c-1.783-2.66-4.132-5.132-5.884-6.602c-0.123-0.095-0.155-0.125-0.25-0.22
		c-0.313-0.281-0.501-0.407-0.845-0.688c-5.853-4.725-10.138-6.291-16.615-9.326c-0.721-0.344-1.346-0.531-2.064-0.875l-8.011-3.537
		c-3.663-1.72-8.449-3.598-11.986-5.287c-3.41-1.628-8.354-3.661-11.983-5.289l-11.985-5.288c-0.782-0.344-1.283-0.595-2.035-0.908
		c-0.313-0.126-0.625-0.251-0.938-0.439c-0.376-0.219-0.501-0.407-1.097-0.469c-1.313-0.25-5.099-2.16-6.602-2.817
		c-2.223-0.97-4.351-1.939-6.541-2.878c-4.318-1.847-8.823-3.818-13.017-5.821c-4.162-2.002-8.323-4.85-9.982-8.824
		c-1.502-3.599-1.409-8.042,0.156-11.767c0.501-1.157,1.189-2.159,1.533-3.066c-1.719,1.22-3.191,2.002-5.099,3.536
		c-1.19,0.938-3.724,3.128-4.6,4.224c-0.877,1.127-1.47,1.565-2.692,3.161c-1.845,2.472-2.939,4.694-4.066,7.51
		c-0.877,2.16-2.066,6.79-2.066,9.668c0,1.096-0.157,1.502-0.157,2.629c0,6.321,1.785,13.048,5.664,17.805l1.941,2.378
		c0.719,0.844,1.596,1.534,2.314,2.159c2.349,2.065,4.006,3.317,6.76,4.976c2.284,1.376,5.039,2.91,7.542,4.005l20.37,8.949
		c0.688,0.281,1.376,0.625,2.003,0.908l10.076,4.412c1.376,0.626,2.692,1.188,4.099,1.783c0.658,0.251,1.316,0.596,2.035,0.908
		l6.103,2.692C156.414,160.655,165.49,164.598,166.49,165.318L166.49,165.318z"/>
</g>
<path fill="#21A947" d="M135.793,179.369c-1.908-0.564-4.568-1.973-6.478-2.786c-5.601-2.378-13.799-6.009-18.9-8.543
	c-3.786-1.876-7.698-4.975-8.949-9.419c-0.688-2.473-0.688-5.57-0.063-8.072c0.907-3.536,2.536-4.632,3.287-5.884
	c-0.564,0.126-0.751,0.376-1.222,0.69c-0.469,0.313-0.751,0.469-1.22,0.781l-4.819,3.223c-2.564,1.909-5.226,4.224-7.134,6.759
	c-3.88,5.228-5.195,9.263-5.914,15.991c-1.001,9.231,1.939,17.743,7.948,23.75l1.001,1.001c1.439,1.282,1.472,1.47,3.191,2.817
	c4.319,3.411,10.233,6.509,15.239,8.667l74.443,33.263l7.762,4.131c5.631,3.223,8.386,4.976,13.423,8.637
	c0.531,0.375,0.469,0.595,1.22,0.781c1.034-0.751,3.255-4.787,3.85-6.195c3.88-9.574,4.287-19.965-0.751-28.694l-5.602-7.04
	c-5.288-4.758-7.979-6.039-13.987-9.014l-6.977-3.065c-0.626-0.252-1.064-0.471-1.722-0.751
	c-10.859-4.662-22.75-10.296-33.546-14.771c-0.656-0.28-1.001-0.467-1.689-0.782l-10.607-4.662
	C136.982,179.868,136.45,179.495,135.793,179.369L135.793,179.369z"/>
<path fill="#00354E" d="M58.789,121.566c-0.307-0.153-5.476-0.068-5.952-0.068v-7.04c-0.051-0.204,0-0.051-0.085-0.17
	c0,1.105-0.136,6.632,0.051,7.262L58.789,121.566L58.789,121.566z"/>
</svg>
