<?xml version="1.0" encoding="utf-8"?>
<!-- Generator: Adobe Illustrator 16.0.3, SVG Export Plug-In . SVG Version: 6.00 Build 0)  -->
<!DOCTYPE svg PUBLIC "-//W3C//DTD SVG 1.1//EN" "http://www.w3.org/Graphics/SVG/1.1/DTD/svg11.dtd">
<svg version="1.1" id="Layer_1" xmlns="http://www.w3.org/2000/svg" xmlns:xlink="http://www.w3.org/1999/xlink" x="0px" y="0px"
	 width="2500px" height="2500px" viewBox="0 0 2500 2500" enable-background="new 0 0 2500 2500" xml:space="preserve">
<g>
	<path fill="#FFFFFF" d="M0,0h2500v2500H0V0z"/>
	<path fill="#FDBB30" d="M1252.016,973.967c41.101,0,74.929-21.368,79.499-48.976l40.576-458.897
		c0-45.36-53.137-82.593-119.945-82.593c-66.742,0-119.827,37.233-119.827,82.599l40.55,458.892
		c4.464,27.6,38.292,48.976,79.286,48.976H1252.016 M1003.997,1117.301c20.618-35.55,19.061-75.502-2.667-93.254L624.14,759.461
		c-39.215-22.711-98.018,4.625-131.387,62.5c-33.488,57.803-27.55,122.359,11.56,145.079l417.656,194.464
		c26.111,9.678,61.71-8.948,82.161-44.474L1003.997,1117.301 M1500.255,1117.056c20.583,35.523,56,54.158,82.135,44.474
		l417.658-194.467c39.355-22.708,44.947-87.276,11.771-145.076c-33.533-57.82-92.44-85.215-131.552-62.503l-377.212,264.589
		c-21.567,17.726-23.17,57.713-2.671,93.254L1500.255,1117.056 M1252.016,1547.2c41.101,0,74.929,21.187,79.499,48.82
		l40.576,458.831c0,45.498-53.137,82.651-119.945,82.651c-66.742,0-119.827-37.156-119.827-82.651l40.55-458.831
		c4.464-27.634,38.292-48.823,79.286-48.823h-0.139 M1500.255,1403.832c20.583-35.622,56-54.095,82.135-44.302l417.658,194.334
		c39.355,22.735,44.947,87.357,11.771,145.209c-33.533,57.63-92.44,85.1-131.552,62.42l-377.212-264.344
		c-21.567-17.864-23.17-57.875-2.671-93.393h-0.164 M1003.997,1403.782c20.618,35.492,19.061,75.503-2.667,93.401L624.14,1761.519
		c-39.215,22.678-98.018-4.789-131.387-62.419c-33.488-57.852-27.55-122.475,11.56-145.212l417.656-194.332
		c26.111-9.792,61.71,8.678,82.161,44.308h-0.132"/>
</g>
</svg>
